<svg width="10" height="6" viewBox="0 0 10 6" fill="none" xmlns="http://www.w3.org/2000/svg">
<path d="M5.46282 4.36114L2.03224 0.930561C1.77912 0.677443 1.36874 0.677443 1.11562 0.930561C0.862502 1.18368 0.862502 1.59406 1.11562 1.84718L5.00451 5.73607C5.25763 5.98919 5.66801 5.98919 5.92113 5.73607L9.81002 1.84718C10.0631 1.59406 10.0631 1.18368 9.81002 0.930561C9.5569 0.677443 9.14652 0.677443 8.8934 0.930561L5.46282 4.36114Z" fill="#646464"/>
<mask id="mask0_2974_18227" style="mask-type:luminance" maskUnits="userSpaceOnUse" x="0" y="0" width="10" height="6">
<path d="M5.46282 4.36114L2.03224 0.930561C1.77912 0.677443 1.36874 0.677443 1.11562 0.930561C0.862502 1.18368 0.862502 1.59406 1.11562 1.84718L5.00451 5.73607C5.25763 5.98919 5.66801 5.98919 5.92113 5.73607L9.81002 1.84718C10.0631 1.59406 10.0631 1.18368 9.81002 0.930561C9.5569 0.677443 9.14652 0.677443 8.8934 0.930561L5.46282 4.36114Z" fill="white"/>
</mask>
<g mask="url(#mask0_2974_18227)">
</g>
</svg>
