<svg width="20" height="20" viewBox="0 0 20 20" fill="none" xmlns="http://www.w3.org/2000/svg">
<path d="M9.99976 0.900391C15.0255 0.900391 19.0994 4.97421 19.0994 10C19.0994 15.0258 15.0255 19.0996 9.99976 19.0996C4.97396 19.0996 0.900146 15.0258 0.900146 10C0.900146 4.97421 4.97396 0.900391 9.99976 0.900391Z" stroke="#5C5C5C" stroke-width="0.2"/>
<path d="M9.99976 10.7929L7.73137 8.14645C7.56401 7.95118 7.29265 7.95118 7.12528 8.14645C6.95791 8.34171 6.95791 8.65829 7.12528 8.85355L9.69671 11.8536C9.86408 12.0488 10.1354 12.0488 10.3028 11.8536L12.8742 8.85355C13.0416 8.65829 13.0416 8.34171 12.8742 8.14645C12.7069 7.95118 12.4355 7.95118 12.2681 8.14645L9.99976 10.7929Z" fill="#565656"/>
<mask id="mask0_2974_18232" style="mask-type:luminance" maskUnits="userSpaceOnUse" x="6" y="8" width="7" height="4">
<path d="M9.99976 10.7929L7.73137 8.14645C7.56401 7.95118 7.29265 7.95118 7.12528 8.14645C6.95791 8.34171 6.95791 8.65829 7.12528 8.85355L9.69671 11.8536C9.86408 12.0488 10.1354 12.0488 10.3028 11.8536L12.8742 8.85355C13.0416 8.65829 13.0416 8.34171 12.8742 8.14645C12.7069 7.95118 12.4355 7.95118 12.2681 8.14645L9.99976 10.7929Z" fill="white"/>
</mask>
<g mask="url(#mask0_2974_18232)">
</g>
</svg>
