<svg width="18" height="18" viewBox="0 0 18 18" fill="none" xmlns="http://www.w3.org/2000/svg">
<path d="M14.25 6.75H10.5V2.25C10.4998 2.09184 10.4497 1.93777 10.3568 1.8098C10.2638 1.68184 10.1328 1.58653 9.98245 1.5375C9.67495 1.44 9.33745 1.545 9.14245 1.8075L3.14245 10.0575C3.06164 10.1694 3.01328 10.3014 3.0027 10.4391C2.99211 10.5767 3.01971 10.7146 3.08245 10.8375C3.20995 11.0925 3.46495 11.25 3.74995 11.25H7.49995V15.75C7.49995 15.9489 7.57897 16.1397 7.71962 16.2803C7.86027 16.421 8.05104 16.5 8.24995 16.5C8.48245 16.5 8.71495 16.3875 8.85745 16.1925L14.8575 7.9425C14.9383 7.8306 14.9866 7.69856 14.9972 7.56094C15.0078 7.42332 14.9802 7.28544 14.9175 7.1625C14.8558 7.03827 14.7606 6.93378 14.6426 6.86087C14.5247 6.78797 14.3886 6.74956 14.25 6.75Z" fill="#F4F4F5"/>
</svg>
