<svg width="17" height="17" viewBox="0 0 17 17" fill="none" xmlns="http://www.w3.org/2000/svg">
<path d="M1.65163 2.56433C1.57572 2.4732 1.52567 2.36 1.50756 2.23847C1.48945 2.11693 1.50405 1.99227 1.54959 1.87961C1.59514 1.76695 1.66967 1.67111 1.76415 1.60373C1.85863 1.53635 1.969 1.50032 2.08189 1.5H14.9167C15.0297 1.50001 15.1402 1.53582 15.2349 1.60308C15.3296 1.67034 15.4044 1.76616 15.4501 1.87888C15.4958 1.99161 15.5106 2.11639 15.4925 2.23808C15.4744 2.35976 15.4244 2.4731 15.3484 2.56433L10.4084 8.3163C10.3072 8.43427 10.2509 8.58983 10.2509 8.75142V13.1654C10.251 13.2702 10.2273 13.3734 10.182 13.4658C10.1367 13.5583 10.0712 13.637 9.99131 13.6952L7.65772 15.3919C7.56993 15.4562 7.46776 15.4933 7.36214 15.4992C7.25653 15.505 7.15143 15.4795 7.05811 15.4252C6.96478 15.371 6.88672 15.2901 6.83229 15.1912C6.77786 15.0923 6.74909 14.9791 6.74908 14.8637V8.75142C6.74912 8.58983 6.69281 8.43427 6.59156 8.3163L1.65163 2.56433Z" stroke="#606060" stroke-width="1.5" stroke-linecap="round" stroke-linejoin="round"/>
</svg>
