<svg width="15" height="15" viewBox="0 0 15 15" fill="none" xmlns="http://www.w3.org/2000/svg">
<path d="M6.39474 13.3947C6.39474 13.6879 6.51118 13.969 6.71846 14.1763C6.92574 14.3836 7.20687 14.5 7.5 14.5C7.79313 14.5 8.07426 14.3836 8.28154 14.1763C8.48882 13.969 8.60526 13.6879 8.60526 13.3947V8.60526H13.3947C13.6879 8.60526 13.969 8.48882 14.1763 8.28154C14.3836 8.07426 14.5 7.79313 14.5 7.5C14.5 7.20687 14.3836 6.92574 14.1763 6.71846C13.969 6.51118 13.6879 6.39474 13.3947 6.39474H8.60526V1.60526C8.60526 1.31213 8.48882 1.031 8.28154 0.823724C8.07426 0.616447 7.79313 0.5 7.5 0.5C7.20687 0.5 6.92574 0.616447 6.71846 0.823724C6.51118 1.031 6.39474 1.31213 6.39474 1.60526V6.39474H1.60526C1.31213 6.39474 1.031 6.51118 0.823724 6.71846C0.616447 6.92574 0.5 7.20687 0.5 7.5C0.5 7.79313 0.616447 8.07426 0.823724 8.28154C1.031 8.48882 1.31213 8.60526 1.60526 8.60526H6.39474V13.3947Z" fill="white"/>
</svg>
