<svg width="15" height="15" viewBox="0 0 15 15" fill="none" xmlns="http://www.w3.org/2000/svg">
<path fill-rule="evenodd" clip-rule="evenodd" d="M0.71008 4.70004C0.773275 4.75864 0.847395 4.80423 0.928209 4.83419C1.00902 4.86415 1.09495 4.8779 1.18108 4.87465C1.2672 4.8714 1.35185 4.85121 1.43017 4.81525C1.5085 4.77928 1.57897 4.72824 1.63757 4.66504L3.3438 2.82756V10.3437C3.3438 10.5178 3.41294 10.6847 3.53601 10.8077C3.65908 10.9308 3.826 11 4.00005 11C4.17409 11 4.34101 10.9308 4.46408 10.8077C4.58715 10.6847 4.65629 10.5178 4.65629 10.3437V2.82756L6.36252 4.66504C6.42113 4.72823 6.4916 4.77927 6.56993 4.81523C6.64825 4.85119 6.7329 4.87137 6.81902 4.87462C6.90515 4.87787 6.99107 4.86413 7.07188 4.83417C7.1527 4.80422 7.22682 4.75864 7.29001 4.70004C7.35321 4.64143 7.40425 4.57096 7.44021 4.49263C7.47617 4.41431 7.49635 4.32966 7.4996 4.24354C7.50285 4.15741 7.48911 4.07149 7.45915 3.99068C7.4292 3.90987 7.38362 3.83574 7.32501 3.77255L4.48129 0.710083C4.41986 0.643822 4.34541 0.59096 4.2626 0.55481C4.17979 0.51866 4.0904 0.5 4.00005 0.5C3.90969 0.5 3.82031 0.51866 3.7375 0.55481C3.65469 0.59096 3.58023 0.643822 3.5188 0.710083L0.675081 3.77255C0.616472 3.83574 0.570885 3.90986 0.540925 3.99067C0.510964 4.07149 0.497217 4.15741 0.500467 4.24354C0.503717 4.32967 0.523901 4.41431 0.559867 4.49264C0.595833 4.57096 0.646876 4.64144 0.71008 4.70004ZM7.71001 10.3C7.64681 10.3586 7.59576 10.429 7.5598 10.5074C7.52383 10.5857 7.50365 10.6703 7.5004 10.7565C7.49715 10.8426 7.51089 10.9285 7.54085 11.0093C7.57082 11.0901 7.6164 11.1643 7.67501 11.2275L10.5187 14.2899C10.5802 14.3562 10.6546 14.409 10.7374 14.4452C10.8202 14.4813 10.9096 14.5 11 14.5C11.0903 14.5 11.1797 14.4813 11.2625 14.4452C11.3453 14.409 11.4198 14.3562 11.4812 14.2899L14.3249 11.2275C14.3835 11.1643 14.4291 11.0901 14.4591 11.0093C14.489 10.9285 14.5028 10.8426 14.4995 10.7565C14.4963 10.6703 14.4761 10.5857 14.4401 10.5074C14.4042 10.429 14.3531 10.3586 14.2899 10.3C14.2267 10.2414 14.1526 10.1958 14.0718 10.1658C13.991 10.1359 13.9051 10.1221 13.819 10.1254C13.7328 10.1286 13.6482 10.1488 13.5699 10.1848C13.4915 10.2207 13.4211 10.2718 13.3625 10.335L11.6562 12.1724V4.65629C11.6562 4.48224 11.5871 4.31532 11.464 4.19225C11.3409 4.06918 11.174 4.00004 11 4.00004C10.8259 4.00004 10.659 4.06918 10.5359 4.19225C10.4129 4.31532 10.3437 4.48224 10.3437 4.65629V12.1724L8.6375 10.335C8.5789 10.2718 8.50843 10.2207 8.4301 10.1848C8.35178 10.1488 8.26713 10.1286 8.18101 10.1254C8.09488 10.1221 8.00895 10.1359 7.92814 10.1658C7.84733 10.1958 7.7732 10.2414 7.71001 10.3Z" fill="#606060"/>
</svg>
