<svg width="18" height="18" viewBox="0 0 18 18" fill="none" xmlns="http://www.w3.org/2000/svg">
<path d="M0 14.2512V18.0012H3.75L14.81 6.94122L11.06 3.19122L0 14.2512ZM17.71 4.04122C17.8027 3.94871 17.8762 3.83882 17.9264 3.71785C17.9766 3.59687 18.0024 3.46719 18.0024 3.33622C18.0024 3.20526 17.9766 3.07557 17.9264 2.9546C17.8762 2.83363 17.8027 2.72374 17.71 2.63122L15.37 0.291223C15.2775 0.19852 15.1676 0.124972 15.0466 0.0747907C14.9257 0.0246093 14.796 -0.0012207 14.665 -0.0012207C14.534 -0.0012207 14.4043 0.0246093 14.2834 0.0747907C14.1624 0.124972 14.0525 0.19852 13.96 0.291223L12.13 2.12122L15.88 5.87122L17.71 4.04122Z" fill="#7A58E7"/>
</svg>
