<svg width="24" height="24" viewBox="0 0 24 24" fill="none" xmlns="http://www.w3.org/2000/svg">
<path d="M6 15.5003V18H8.49966L15.872 10.6277L13.3723 8.12801L6 15.5003ZM17.8051 8.6946C17.8669 8.63293 17.9159 8.55968 17.9493 8.47904C17.9828 8.3984 18 8.31196 18 8.22466C18 8.13736 17.9828 8.05092 17.9493 7.97028C17.9159 7.88964 17.8669 7.81639 17.8051 7.75472L16.2453 6.19494C16.1836 6.13314 16.1104 6.08412 16.0297 6.05067C15.9491 6.01722 15.8626 6 15.7753 6C15.688 6 15.6016 6.01722 15.521 6.05067C15.4403 6.08412 15.3671 6.13314 15.3054 6.19494L14.0856 7.41477L16.5852 9.91443L17.8051 8.6946Z" fill="#94A3B8"/>
</svg>
