<svg width="21" height="20" viewBox="0 0 21 20" fill="none" xmlns="http://www.w3.org/2000/svg">
<path d="M8.99356 8.51202C8.6186 8.88707 8.40797 9.39569 8.40797 9.92602C8.40797 10.4564 8.6186 10.965 8.99356 11.34L9.08289 11.4294C9.26863 11.6152 9.48917 11.7627 9.73191 11.8632C9.97465 11.9638 10.2348 12.0156 10.4976 12.0156C10.7604 12.0156 11.0205 11.9638 11.2633 11.8632C11.506 11.7627 11.7266 11.6152 11.9123 11.4294L16.0657 7.27601C16.2577 7.08401 16.4031 6.86268 16.5004 6.62534V17.3334C16.5004 18.0406 16.2195 18.7189 15.7193 19.219C15.2192 19.7191 14.5409 20.0001 13.8337 20.0001H3.16674C2.45947 20.0001 1.78118 19.7191 1.28107 19.219C0.780959 18.7189 0.5 18.0406 0.5 17.3334V6.66668C0.5 5.95943 0.780959 5.28115 1.28107 4.78105C1.78118 4.28095 2.45947 4 3.16674 4H13.635C13.4551 4.09409 13.2905 4.21503 13.147 4.35867L8.99356 8.51202Z" fill="#606060" fill-opacity="0.32"/>
<path fill-rule="evenodd" clip-rule="evenodd" d="M19.4586 1.04285C19.5207 1.10478 19.57 1.17834 19.6036 1.25934C19.6372 1.34033 19.6545 1.42716 19.6545 1.51485C19.6545 1.60254 19.6372 1.68937 19.6036 1.77036C19.57 1.85136 19.5207 1.92492 19.4586 1.98685L10.9731 10.4722C10.848 10.5974 10.6784 10.6678 10.5015 10.6679C10.3246 10.668 10.1549 10.5979 10.0297 10.4729C9.90451 10.3479 9.83411 10.1783 9.83398 10.0014C9.83386 9.82444 9.90402 9.65473 10.029 9.52955L18.5146 1.04285C18.6396 0.917867 18.8091 0.847656 18.9859 0.847656C19.1627 0.847656 19.3323 0.917867 19.4573 1.04285" fill="#606060"/>
<path fill-rule="evenodd" clip-rule="evenodd" d="M12.5 0.666669C12.5 0.489858 12.5702 0.320288 12.6953 0.195263C12.8203 0.0702383 12.9899 0 13.1667 0H19.8335C20.0103 0 20.1799 0.0702383 20.3049 0.195263C20.43 0.320288 20.5002 0.489858 20.5002 0.666669V7.33336C20.5002 7.51017 20.43 7.67974 20.3049 7.80477C20.1799 7.92979 20.0103 8.00003 19.8335 8.00003C19.6567 8.00003 19.4871 7.92979 19.3621 7.80477C19.2371 7.67974 19.1668 7.51017 19.1668 7.33336V1.33334H13.1667C12.9899 1.33334 12.8203 1.2631 12.6953 1.13808C12.5702 1.01305 12.5 0.843481 12.5 0.666669Z" fill="#606060"/>
</svg>
