<svg width="16" height="12" viewBox="0 0 16 12" fill="none" xmlns="http://www.w3.org/2000/svg">
<path d="M1.04375 6.24349C0.985416 6.08634 0.985416 5.91347 1.04375 5.75632C1.61191 4.37869 2.57633 3.20078 3.81475 2.37192C5.05317 1.54306 6.50981 1.10059 8 1.10059C9.49019 1.10059 10.9468 1.54306 12.1852 2.37192C13.4237 3.20078 14.3881 4.37869 14.9562 5.75632C15.0146 5.91347 15.0146 6.08634 14.9562 6.24349C14.3881 7.62113 13.4237 8.79904 12.1852 9.6279C10.9468 10.4568 9.49019 10.8992 8 10.8992C6.50981 10.8992 5.05317 10.4568 3.81475 9.6279C2.57633 8.79904 1.61191 7.62113 1.04375 6.24349Z" stroke="#606060" stroke-width="1.25" stroke-linecap="round" stroke-linejoin="round"/>
<path d="M8.00004 8.0992C9.15978 8.0992 10.0999 7.15905 10.0999 5.99931C10.0999 4.83957 9.15978 3.89941 8.00004 3.89941C6.8403 3.89941 5.90015 4.83957 5.90015 5.99931C5.90015 7.15905 6.8403 8.0992 8.00004 8.0992Z" stroke="#606060" stroke-width="1.25" stroke-linecap="round" stroke-linejoin="round"/>
</svg>
