<svg width="14" height="12" viewBox="0 0 14 12" fill="none" xmlns="http://www.w3.org/2000/svg">
<path d="M10.8062 10.1276C9.66801 10.7587 8.3475 11.0929 6.99968 11.0909C3.51084 11.0909 0.608217 8.89605 0 5.99972C0.278819 4.68266 1.03629 3.47941 2.15982 2.5688L0.137172 0.799887L1.05209 0L13.8628 11.1995L12.9479 12L10.8062 10.1276ZM3.07603 3.36925C2.19663 4.06826 1.58389 4.98644 1.32061 5.99972C1.52267 6.77271 1.92835 7.49379 2.50534 8.10555C3.08233 8.71732 3.8147 9.20288 4.64416 9.52358C5.47362 9.84428 6.37725 9.99127 7.28314 9.95284C8.18902 9.91441 9.07213 9.69162 9.86218 9.30222L8.54998 8.155C7.99139 8.46263 7.3298 8.59517 6.67372 8.53087C6.01765 8.46657 5.40604 8.20925 4.93922 7.80112C4.4724 7.39299 4.17808 6.85828 4.10454 6.28469C4.03099 5.7111 4.18258 5.13269 4.53445 4.64432L3.07603 3.36925ZM7.59107 7.31665L5.49337 5.48324C5.37824 5.73946 5.35114 6.01949 5.4154 6.28898C5.47966 6.55847 5.63249 6.8057 5.85514 7.00036C6.07779 7.19501 6.36057 7.32862 6.66882 7.38481C6.97706 7.44099 7.298 7.4173 7.59107 7.31665ZM12.6975 8.59793L11.7716 7.78843C12.2051 7.24984 12.5135 6.64213 12.6794 5.99972C12.5036 5.32633 12.1729 4.69123 11.7076 4.13305C11.2422 3.57486 10.6519 3.10524 9.97251 2.75274C9.29309 2.40024 8.53878 2.17222 7.75543 2.08254C6.97207 1.99286 6.17604 2.0434 5.41572 2.23108L4.39469 1.33842C5.20155 1.06124 6.08088 0.908499 6.99968 0.908499C10.4885 0.908499 13.3911 3.10338 14 5.99972C13.8018 6.94217 13.3555 7.83156 12.6975 8.59793ZM6.82045 3.4592C6.87954 3.45581 6.93929 3.45411 6.99968 3.45411C7.39723 3.45406 7.79058 3.52519 8.15549 3.66312C8.52039 3.80104 8.84913 4.00283 9.12144 4.25606C9.39375 4.50929 9.60386 4.80859 9.73882 5.13552C9.87378 5.46245 9.93074 5.81007 9.90618 6.15698L6.82045 3.4592Z" fill="#606060"/>
</svg>
