<svg width="34" height="34" viewBox="0 0 34 34" fill="none" xmlns="http://www.w3.org/2000/svg">
<rect x="2" y="2" width="30" height="30" rx="15" fill="#F4EBFF"/>
<rect x="2" y="2" width="30" height="30" rx="15" stroke="#F9F5FF" stroke-width="4"/>
<path d="M17.6666 10.3333H13C12.6463 10.3333 12.3072 10.4737 12.0572 10.7238C11.8071 10.9738 11.6666 11.313 11.6666 11.6666V22.3333C11.6666 22.6869 11.8071 23.026 12.0572 23.2761C12.3072 23.5261 12.6463 23.6666 13 23.6666H21C21.3536 23.6666 21.6927 23.5261 21.9428 23.2761C22.1928 23.026 22.3333 22.6869 22.3333 22.3333V14.9999M17.6666 10.3333L22.3333 14.9999M17.6666 10.3333V14.9999H22.3333" stroke="#7F56D9" stroke-width="1.33333" stroke-linecap="round" stroke-linejoin="round"/>
</svg>
