<svg width="12" height="20" viewBox="0 0 12 20" fill="none" xmlns="http://www.w3.org/2000/svg">
<path d="M2.2666 3.5C2.95696 3.5 3.5166 2.94036 3.5166 2.25C3.5166 1.55964 2.95696 1 2.2666 1C1.57625 1 1.0166 1.55964 1.0166 2.25C1.0166 2.94036 1.57625 3.5 2.2666 3.5Z" fill="#CBD5E1" stroke="#CBD5E1" stroke-linecap="round" stroke-linejoin="round"/>
<path d="M9.2666 3.5C9.95696 3.5 10.5166 2.94036 10.5166 2.25C10.5166 1.55964 9.95696 1 9.2666 1C8.57625 1 8.0166 1.55964 8.0166 2.25C8.0166 2.94036 8.57625 3.5 9.2666 3.5Z" fill="#CBD5E1" stroke="#CBD5E1" stroke-linecap="round" stroke-linejoin="round"/>
<path d="M2.2666 11.1665C2.95696 11.1665 3.5166 10.6069 3.5166 9.9165C3.5166 9.22615 2.95696 8.6665 2.2666 8.6665C1.57625 8.6665 1.0166 9.22615 1.0166 9.9165C1.0166 10.6069 1.57625 11.1665 2.2666 11.1665Z" fill="#7A58E7" stroke="#7A58E7" stroke-linecap="round" stroke-linejoin="round"/>
<path d="M9.2666 11.1665C9.95696 11.1665 10.5166 10.6069 10.5166 9.9165C10.5166 9.22615 9.95696 8.6665 9.2666 8.6665C8.57625 8.6665 8.0166 9.22615 8.0166 9.9165C8.0166 10.6069 8.57625 11.1665 9.2666 11.1665Z" fill="#CBD5E1" stroke="#CBD5E1" stroke-linecap="round" stroke-linejoin="round"/>
<path d="M2.2666 18.8335C2.95696 18.8335 3.5166 18.2739 3.5166 17.5835C3.5166 16.8931 2.95696 16.3335 2.2666 16.3335C1.57625 16.3335 1.0166 16.8931 1.0166 17.5835C1.0166 18.2739 1.57625 18.8335 2.2666 18.8335Z" fill="#CBD5E1" stroke="#CBD5E1" stroke-linecap="round" stroke-linejoin="round"/>
<path d="M9.2666 18.8335C9.95696 18.8335 10.5166 18.2739 10.5166 17.5835C10.5166 16.8931 9.95696 16.3335 9.2666 16.3335C8.57625 16.3335 8.0166 16.8931 8.0166 17.5835C8.0166 18.2739 8.57625 18.8335 9.2666 18.8335Z" fill="#CBD5E1" stroke="#CBD5E1" stroke-linecap="round" stroke-linejoin="round"/>
</svg>
