<svg width="16" height="16" viewBox="0 0 16 16" fill="none" xmlns="http://www.w3.org/2000/svg">
<path fill-rule="evenodd" clip-rule="evenodd" d="M8 15.2C11.9764 15.2 15.2 11.9764 15.2 8C15.2 4.0236 11.9764 0.8 8 0.8C4.0236 0.8 0.8 4.0236 0.8 8C0.8 11.9764 4.0236 15.2 8 15.2ZM8 16C12.4184 16 16 12.4184 16 8C16 3.5816 12.4184 0 8 0C3.5816 0 0 3.5816 0 8C0 12.4184 3.5816 16 8 16Z" fill="#00AC4F"/>
<path fill-rule="evenodd" clip-rule="evenodd" d="M12.2675 4.9035C12.3462 4.97459 12.3934 5.07403 12.3988 5.17994C12.4042 5.28585 12.3673 5.38957 12.2963 5.4683L6.95387 11.3727L3.72347 8.2891C3.65094 8.21497 3.61003 8.11556 3.60938 8.01185C3.60874 7.90813 3.6484 7.80822 3.72001 7.73319C3.79161 7.65816 3.88956 7.61387 3.99319 7.60968C4.09683 7.60548 4.19804 7.6417 4.27547 7.7107L6.91147 10.2267L11.7031 4.9319C11.7383 4.89293 11.7809 4.8613 11.8284 4.8388C11.8759 4.8163 11.9274 4.80338 11.9799 4.80078C12.0324 4.79818 12.0848 4.80595 12.1343 4.82364C12.1838 4.84134 12.2293 4.86861 12.2683 4.9039" fill="#00AC4F"/>
</svg>
