<svg width="16" height="15" viewBox="0 0 16 15" fill="none" xmlns="http://www.w3.org/2000/svg">
<path d="M9.4 1.3883C9.4 0.8976 9.0024 0.5 8.5117 0.5H7.489C6.9976 0.5 6.6 0.8976 6.6 1.3883C6.6 1.7929 6.3228 2.1401 5.9455 2.2885C5.88577 2.31277 5.82673 2.3375 5.7684 2.3627C5.3967 2.5237 4.955 2.4747 4.668 2.1884C4.50134 2.02212 4.27553 1.92873 4.0401 1.92873C3.80467 1.92873 3.57886 2.02212 3.4122 2.1884L2.6884 2.9122C2.52212 3.07886 2.42873 3.30467 2.42873 3.5401C2.42873 3.77553 2.52212 4.00134 2.6884 4.168C2.9754 4.455 3.0244 4.896 2.862 5.2684C2.83649 5.32701 2.81199 5.38605 2.7885 5.4455C2.6401 5.8228 2.2929 6.1 1.8883 6.1C1.3976 6.1 1 6.4976 1 6.9883V8.0117C1 8.5024 1.3976 8.9 1.8883 8.9C2.2929 8.9 2.6401 9.1772 2.7885 9.5545C2.81277 9.61423 2.83727 9.67327 2.862 9.7316C3.0237 10.1033 2.9747 10.545 2.6884 10.832C2.52212 10.9987 2.42873 11.2245 2.42873 11.4599C2.42873 11.6953 2.52212 11.9211 2.6884 12.0878L3.4122 12.8116C3.57886 12.9779 3.80467 13.0713 4.0401 13.0713C4.27553 13.0713 4.50134 12.9779 4.668 12.8116C4.955 12.5246 5.396 12.4756 5.7684 12.6373C5.82673 12.663 5.88577 12.6877 5.9455 12.7115C6.3228 12.8599 6.6 13.2071 6.6 13.6117C6.6 14.1024 6.9976 14.5 7.4883 14.5H8.5117C9.0024 14.5 9.4 14.1024 9.4 13.6117C9.4 13.2071 9.6772 12.8599 10.0545 12.7108C10.1142 12.6875 10.1733 12.6632 10.2316 12.638C10.6033 12.4756 11.045 12.5253 11.3313 12.8116C11.498 12.9781 11.724 13.0716 11.9595 13.0716C12.1951 13.0716 12.4211 12.9781 12.5878 12.8116L13.3116 12.0878C13.4779 11.9211 13.5713 11.6953 13.5713 11.4599C13.5713 11.2245 13.4779 10.9987 13.3116 10.832C13.0246 10.545 12.9756 10.104 13.1373 9.7316C13.163 9.67327 13.1877 9.61423 13.2115 9.5545C13.3599 9.1772 13.7071 8.9 14.1117 8.9C14.6024 8.9 15 8.5024 15 8.0117V6.989C15 6.4983 14.6024 6.1007 14.1117 6.1007C13.7071 6.1007 13.3599 5.8235 13.2108 5.4462C13.1873 5.38675 13.1628 5.32771 13.1373 5.2691C12.9763 4.8974 13.0253 4.4557 13.3116 4.1687C13.4779 4.00204 13.5713 3.77623 13.5713 3.5408C13.5713 3.30537 13.4779 3.07956 13.3116 2.9129L12.5878 2.1891C12.4211 2.02282 12.1953 1.92943 11.9599 1.92943C11.7245 1.92943 11.4987 2.02282 11.332 2.1891C11.045 2.4761 10.604 2.5251 10.2316 2.3634C10.173 2.33766 10.114 2.31292 10.0545 2.2892C9.6772 2.1401 9.4 1.7922 9.4 1.3883Z" stroke="white"/>
<path d="M10.8002 7.5002C10.8002 8.2428 10.5052 8.95499 9.98009 9.48009C9.45499 10.0052 8.7428 10.3002 8.0002 10.3002C7.25759 10.3002 6.5454 10.0052 6.0203 9.48009C5.49519 8.95499 5.2002 8.2428 5.2002 7.5002C5.2002 6.75759 5.49519 6.0454 6.0203 5.5203C6.5454 4.99519 7.25759 4.7002 8.0002 4.7002C8.7428 4.7002 9.45499 4.99519 9.98009 5.5203C10.5052 6.0454 10.8002 6.75759 10.8002 7.5002Z" stroke="white"/>
</svg>
