<svg width="392" height="38" viewBox="0 0 392 38" fill="none" xmlns="http://www.w3.org/2000/svg">
<rect width="392" height="38" fill="white"/>
<path d="M5.7666 12.7231C8.32324 12.7231 10.5479 14.541 10.5479 18.8574V18.874C10.5479 22.9082 8.72998 25.2988 5.7168 25.2988C3.51709 25.2988 1.87354 23.9956 1.4917 22.1611L1.4751 22.0698H3.5835L3.6084 22.1528C3.92383 22.9912 4.6626 23.5391 5.7168 23.5391C7.61768 23.5391 8.42285 21.6797 8.51416 19.3887C8.51416 19.2974 8.52246 19.2061 8.52246 19.1147H8.35645C7.9165 20.061 6.87061 20.8994 5.22705 20.8994C2.92773 20.8994 1.31738 19.2227 1.31738 16.9482V16.9316C1.31738 14.4995 3.16846 12.7231 5.7666 12.7231ZM5.7583 19.2559C7.11133 19.2559 8.14893 18.2764 8.14893 16.9233V16.9067C8.14893 15.5371 7.11133 14.4663 5.7832 14.4663C4.46338 14.4663 3.40918 15.5205 3.40918 16.8569V16.8735C3.40918 18.2598 4.39697 19.2559 5.7583 19.2559ZM14.3164 17.2388C13.561 17.2388 12.9966 16.6577 12.9966 15.9272C12.9966 15.1885 13.561 14.6157 14.3164 14.6157C15.0801 14.6157 15.6362 15.1885 15.6362 15.9272C15.6362 16.6577 15.0801 17.2388 14.3164 17.2388ZM14.3164 23.3979C13.561 23.3979 12.9966 22.8252 12.9966 22.0864C12.9966 21.3477 13.561 20.7749 14.3164 20.7749C15.0801 20.7749 15.6362 21.3477 15.6362 22.0864C15.6362 22.8252 15.0801 23.3979 14.3164 23.3979ZM23.8955 25V22.7007H18.0352V20.9492C19.5874 18.2515 21.2891 15.4956 22.916 13.022H25.9458V20.9326H27.5562V22.7007H25.9458V25H23.8955ZM20.0273 20.9824H23.9287V14.7319H23.8042C22.5757 16.6079 21.1895 18.8242 20.0273 20.8579V20.9824ZM32.52 25V15.1304H32.3789L29.3989 17.2388V15.2217L32.5283 13.022H34.6616V25H32.52Z" fill="black"/>
<path fill-rule="evenodd" clip-rule="evenodd" d="M331.53 14.0329C331.53 13.3999 331.053 12.8867 330.463 12.8867H329.397C328.808 12.8867 328.33 13.3999 328.33 14.0329V23.9669C328.33 24.5999 328.808 25.1131 329.397 25.1131H330.463C331.053 25.1131 331.53 24.5999 331.53 23.9669V14.0329ZM324.096 15.332H325.163C325.752 15.332 326.229 15.8575 326.229 16.5057V23.9394C326.229 24.5876 325.752 25.1131 325.163 25.1131H324.096C323.507 25.1131 323.029 24.5876 323.029 23.9394V16.5057C323.029 15.8575 323.507 15.332 324.096 15.332ZM319.764 17.981H318.698C318.108 17.981 317.631 18.5132 317.631 19.1697V23.9244C317.631 24.5809 318.108 25.1131 318.698 25.1131H319.764C320.353 25.1131 320.831 24.5809 320.831 23.9244V19.1697C320.831 18.5132 320.353 17.981 319.764 17.981ZM314.463 20.4263H313.397C312.808 20.4263 312.33 20.9509 312.33 21.598V23.9414C312.33 24.5885 312.808 25.1131 313.397 25.1131H314.463C315.053 25.1131 315.53 24.5885 315.53 23.9414V21.598C315.53 20.9509 315.053 20.4263 314.463 20.4263Z" fill="black"/>
<path fill-rule="evenodd" clip-rule="evenodd" d="M348.102 15.3022C350.589 15.3023 352.981 16.2244 354.783 17.8779C354.919 18.0055 355.136 18.0039 355.27 17.8743L356.567 16.6108C356.635 16.545 356.672 16.456 356.672 16.3633C356.671 16.2706 356.633 16.182 356.564 16.117C351.833 11.7423 344.369 11.7423 339.638 16.117C339.57 16.1819 339.531 16.2705 339.53 16.3632C339.53 16.4559 339.567 16.545 339.635 16.6108L340.933 17.8743C341.066 18.0041 341.284 18.0057 341.419 17.8779C343.222 16.2243 345.614 15.3022 348.102 15.3022ZM348.098 19.5225C349.456 19.5224 350.764 20.0342 351.771 20.9583C351.907 21.0894 352.121 21.0866 352.254 20.9519L353.541 19.6326C353.609 19.5634 353.646 19.4695 353.645 19.3719C353.644 19.2744 353.605 19.1813 353.536 19.1135C350.472 16.2227 345.727 16.2227 342.663 19.1135C342.594 19.1813 342.555 19.2744 342.554 19.372C342.553 19.4696 342.591 19.5635 342.658 19.6326L343.945 20.9519C344.078 21.0866 344.292 21.0894 344.429 20.9583C345.434 20.0348 346.742 19.5231 348.098 19.5225ZM350.623 22.316C350.625 22.4214 350.588 22.523 350.52 22.5968L348.344 25.0515C348.28 25.1236 348.193 25.1642 348.102 25.1642C348.011 25.1642 347.924 25.1236 347.86 25.0515L345.683 22.5968C345.616 22.5229 345.579 22.4213 345.581 22.316C345.583 22.2106 345.624 22.1108 345.694 22.0402C347.084 20.7263 349.12 20.7263 350.51 22.0402C350.58 22.1109 350.621 22.2107 350.623 22.316Z" fill="black"/>
<rect x="365.172" y="13" width="24" height="12" rx="3.8" stroke="black"/>
<path d="M390.672 17.2812V21.3567C391.477 21.0116 392 20.2086 392 19.319C392 18.4294 391.477 17.6264 390.672 17.2812" fill="black"/>
<rect x="366.672" y="14.5" width="21" height="9" rx="2.5" fill="black"/>
</svg>
