<svg width="68" height="68" viewBox="0 0 68 68" fill="none" xmlns="http://www.w3.org/2000/svg">
<g filter="url(#filter0_i_106_13608)">
<rect width="67.8261" height="67.8261" rx="13.5652" fill="white"/>
<path d="M45.7825 28.8261H37.3042V18.6522C37.304 18.2946 37.1907 17.9462 36.9806 17.6569C36.7704 17.3676 36.4742 17.1521 36.1342 17.0413C35.439 16.8209 34.676 17.0582 34.2351 17.6517L20.6699 36.3039C20.4872 36.5569 20.3779 36.8554 20.3539 37.1665C20.33 37.4777 20.3924 37.7894 20.5342 38.0674C20.8225 38.6439 21.399 39 22.0434 39H30.5216V49.1739C30.5216 49.6236 30.7003 50.0549 31.0183 50.3729C31.3363 50.6909 31.7676 50.8695 32.2173 50.8695C32.7429 50.8695 33.2686 50.6152 33.5908 50.1743L47.156 31.5222C47.3387 31.2692 47.448 30.9707 47.472 30.6595C47.4959 30.3484 47.4335 30.0366 47.2916 29.7587C47.1523 29.4778 46.9371 29.2416 46.6703 29.0767C46.4036 28.9119 46.0961 28.8251 45.7825 28.8261Z" fill="#09090B"/>
</g>
<defs>
<filter id="filter0_i_106_13608" x="0" y="-4.52174" width="67.8261" height="72.3478" filterUnits="userSpaceOnUse" color-interpolation-filters="sRGB">
<feFlood flood-opacity="0" result="BackgroundImageFix"/>
<feBlend mode="normal" in="SourceGraphic" in2="BackgroundImageFix" result="shape"/>
<feColorMatrix in="SourceAlpha" type="matrix" values="0 0 0 0 0 0 0 0 0 0 0 0 0 0 0 0 0 0 127 0" result="hardAlpha"/>
<feOffset dy="-4.52174"/>
<feGaussianBlur stdDeviation="4.74783"/>
<feComposite in2="hardAlpha" operator="arithmetic" k2="-1" k3="1"/>
<feColorMatrix type="matrix" values="0 0 0 0 0 0 0 0 0 0 0 0 0 0 0 0 0 0 1 0"/>
<feBlend mode="normal" in2="shape" result="effect1_innerShadow_106_13608"/>
</filter>
</defs>
</svg>
