<svg width="300" height="130" viewBox="0 0 300 130" fill="none" xmlns="http://www.w3.org/2000/svg">
<path d="M77.1818 76.123V37.5355H93.0578C96.4756 37.5355 99.3972 38.0867 101.823 39.1892C104.285 40.2917 106.178 41.872 107.501 43.93C108.824 45.988 109.485 48.4319 109.485 51.2616C109.485 54.0914 108.824 56.5353 107.501 58.5933C106.178 60.6513 104.285 62.2315 101.823 63.334C99.3972 64.4365 96.4756 64.9878 93.0578 64.9878H81.1508L84.348 61.6251V76.123H77.1818ZM84.348 62.3969L81.1508 58.924H92.727C95.8876 58.924 98.2579 58.2625 99.8382 56.9395C101.455 55.5798 102.264 53.6871 102.264 51.2616C102.264 48.7994 101.455 46.9067 99.8382 45.5837C98.2579 44.2607 95.8876 43.5992 92.727 43.5992H81.1508L84.348 40.0712V62.3969ZM128.977 76.5089C126.478 76.5089 124.273 76.0495 122.362 75.1308C120.451 74.1753 118.962 72.742 117.896 70.831C116.831 68.8833 116.298 66.4394 116.298 63.4994V46.6862H123.188V62.5623C123.188 65.2083 123.776 67.1928 124.952 68.5158C126.165 69.802 127.874 70.4452 130.079 70.4452C131.696 70.4452 133.093 70.1144 134.269 69.4529C135.481 68.7914 136.418 67.7992 137.08 66.4761C137.778 65.1531 138.127 63.5178 138.127 61.57V46.6862H145.018V76.123H138.458V68.185L139.616 70.6105C138.623 72.5215 137.172 73.9915 135.261 75.0205C133.35 76.0128 131.255 76.5089 128.977 76.5089ZM154.04 76.123V35.2202H160.931V76.123H154.04ZM179.07 76.5089C176.608 76.5089 174.238 76.1965 171.959 75.5718C169.717 74.9103 167.935 74.1202 166.612 73.2014L169.258 67.9645C170.581 68.8098 172.161 69.508 173.999 70.0593C175.836 70.6105 177.674 70.8862 179.511 70.8862C181.679 70.8862 183.241 70.5922 184.197 70.0042C185.189 69.4162 185.685 68.626 185.685 67.6338C185.685 66.8253 185.354 66.2189 184.693 65.8146C184.031 65.3736 183.168 65.0429 182.102 64.8224C181.036 64.6019 179.842 64.3998 178.519 64.216C177.233 64.0323 175.928 63.7934 174.605 63.4994C173.319 63.1686 172.143 62.7093 171.077 62.1213C170.011 61.4965 169.148 60.6696 168.486 59.6406C167.825 58.6116 167.494 57.2519 167.494 55.5614C167.494 53.6871 168.027 52.0701 169.093 50.7104C170.158 49.3139 171.647 48.2481 173.558 47.5131C175.505 46.7414 177.802 46.3555 180.448 46.3555C182.433 46.3555 184.436 46.576 186.457 47.017C188.478 47.458 190.15 48.0827 191.473 48.8912L188.827 54.1281C187.431 53.2829 186.016 52.7132 184.583 52.4192C183.186 52.0885 181.79 51.9231 180.393 51.9231C178.298 51.9231 176.737 52.2355 175.708 52.8602C174.715 53.485 174.219 54.2751 174.219 55.2306C174.219 56.1126 174.55 56.7741 175.211 57.2151C175.873 57.6561 176.737 58.0053 177.802 58.2625C178.868 58.5198 180.044 58.7403 181.33 58.924C182.653 59.071 183.958 59.3099 185.244 59.6406C186.53 59.9714 187.706 60.4308 188.772 61.0188C189.875 61.57 190.757 62.3601 191.418 63.3891C192.08 64.4181 192.41 65.7595 192.41 67.4133C192.41 69.2508 191.859 70.8494 190.757 72.2092C189.691 73.5689 188.166 74.6347 186.181 75.4064C184.197 76.1414 181.826 76.5089 179.07 76.5089ZM212.181 76.5089C208.91 76.5089 206.044 75.8658 203.582 74.5795C201.156 73.2565 199.263 71.4558 197.904 69.1773C196.581 66.8988 195.919 64.3079 195.919 61.4046C195.919 58.4646 196.562 55.8738 197.848 53.632C199.172 51.3535 200.972 49.5711 203.251 48.2849C205.566 46.9986 208.194 46.3555 211.134 46.3555C214 46.3555 216.554 46.9802 218.796 48.2297C221.038 49.4792 222.802 51.2432 224.088 53.5217C225.374 55.8003 226.017 58.483 226.017 61.57C226.017 61.864 225.999 62.1948 225.962 62.5623C225.962 62.9298 225.944 63.2789 225.907 63.6096H201.377V59.0343H222.269L219.568 60.4675C219.605 58.777 219.255 57.2886 218.52 56.0024C217.785 54.7161 216.775 53.7055 215.489 52.9705C214.239 52.2355 212.787 51.868 211.134 51.868C209.443 51.868 207.955 52.2355 206.669 52.9705C205.419 53.7055 204.427 54.7345 203.692 56.0575C202.994 57.3438 202.644 58.8689 202.644 60.6329V61.7354C202.644 63.4994 203.049 65.0613 203.857 66.421C204.666 67.7808 205.805 68.8282 207.275 69.5632C208.745 70.2982 210.435 70.6657 212.346 70.6657C214 70.6657 215.489 70.4084 216.812 69.8939C218.135 69.3794 219.311 68.5709 220.34 67.4684L224.033 71.713C222.71 73.2565 221.038 74.4509 219.017 75.2962C217.032 76.1047 214.754 76.5089 212.181 76.5089Z" fill="#496379"/>
<path d="M82.0255 96.5562L86.5089 86.5931H88.3307L92.8283 96.5562H90.8926L87.0355 87.5752H87.7756L83.9327 96.5562H82.0255ZM84.0893 94.2504L84.5874 92.7987H89.9675L90.4656 94.2504H84.0893ZM96.2906 96.6558C95.6454 96.6558 95.076 96.5372 94.5826 96.3C94.0892 96.0533 93.7049 95.6832 93.4298 95.1898C93.1546 94.6869 93.017 94.0559 93.017 93.2968V88.9558H94.7961V93.0549C94.7961 93.738 94.9479 94.2504 95.2516 94.592C95.5647 94.9241 96.0059 95.0902 96.5752 95.0902C96.9927 95.0902 97.3533 95.0048 97.6569 94.834C97.9701 94.6632 98.212 94.407 98.3828 94.0654C98.5631 93.7238 98.6533 93.3016 98.6533 92.7987V88.9558H100.432V96.5562H98.7387V94.5066L99.0375 95.1329C98.7813 95.6263 98.4065 96.0058 97.9131 96.2715C97.4197 96.5277 96.8789 96.6558 96.2906 96.6558ZM104.911 96.6558C104.076 96.6558 103.431 96.4423 102.975 96.0153C102.52 95.5788 102.292 94.9383 102.292 94.0939V87.2763H104.071V94.0512C104.071 94.4117 104.161 94.6916 104.342 94.8909C104.531 95.0902 104.792 95.1898 105.124 95.1898C105.523 95.1898 105.855 95.0854 106.121 94.8767L106.619 96.1434C106.41 96.3142 106.154 96.4423 105.85 96.5277C105.547 96.6131 105.234 96.6558 104.911 96.6558ZM101.04 90.436V89.0127H106.107V90.436H101.04ZM110.537 96.6558C109.758 96.6558 109.066 96.4897 108.459 96.1576C107.851 95.816 107.372 95.3511 107.021 94.7628C106.67 94.1745 106.494 93.5056 106.494 92.756C106.494 91.9969 106.67 91.3279 107.021 90.7491C107.372 90.1608 107.851 89.7006 108.459 89.3685C109.066 89.0364 109.758 88.8704 110.537 88.8704C111.324 88.8704 112.022 89.0364 112.629 89.3685C113.246 89.7006 113.725 90.1561 114.066 90.7349C114.417 91.3137 114.593 91.9874 114.593 92.756C114.593 93.5056 114.417 94.1745 114.066 94.7628C113.725 95.3511 113.246 95.816 112.629 96.1576C112.022 96.4897 111.324 96.6558 110.537 96.6558ZM110.537 95.1329C110.973 95.1329 111.362 95.038 111.704 94.8482C112.045 94.6584 112.311 94.3833 112.501 94.0227C112.7 93.6621 112.8 93.2399 112.8 92.756C112.8 92.2626 112.7 91.8403 112.501 91.4892C112.311 91.1287 112.045 90.8535 111.704 90.6637C111.362 90.4739 110.978 90.3791 110.551 90.3791C110.114 90.3791 109.725 90.4739 109.384 90.6637C109.052 90.8535 108.786 91.1287 108.587 91.4892C108.387 91.8403 108.288 92.2626 108.288 92.756C108.288 93.2399 108.387 93.6621 108.587 94.0227C108.786 94.3833 109.052 94.6584 109.384 94.8482C109.725 95.038 110.11 95.1329 110.537 95.1329ZM118.975 96.5562V86.5931H123.33C124.412 86.5931 125.361 86.8018 126.177 87.2193C126.993 87.6368 127.629 88.2157 128.084 88.9558C128.54 89.6959 128.767 90.5688 128.767 91.5746C128.767 92.5709 128.54 93.4439 128.084 94.1935C127.629 94.9336 126.993 95.5124 126.177 95.9299C125.361 96.3474 124.412 96.5562 123.33 96.5562H118.975ZM120.825 94.9905H123.245C123.995 94.9905 124.64 94.8482 125.181 94.5635C125.731 94.2789 126.153 93.8804 126.448 93.368C126.751 92.8556 126.903 92.2578 126.903 91.5746C126.903 90.882 126.751 90.2842 126.448 89.7813C126.153 89.2689 125.731 88.8704 125.181 88.5857C124.64 88.301 123.995 88.1587 123.245 88.1587H120.825V94.9905ZM133.424 96.6558C132.58 96.6558 131.839 96.4897 131.204 96.1576C130.578 95.816 130.089 95.3511 129.738 94.7628C129.396 94.1745 129.225 93.5056 129.225 92.756C129.225 91.9969 129.391 91.3279 129.724 90.7491C130.065 90.1608 130.53 89.7006 131.118 89.3685C131.716 89.0364 132.395 88.8704 133.154 88.8704C133.894 88.8704 134.553 89.0317 135.132 89.3543C135.711 89.6769 136.166 90.1324 136.498 90.7206C136.831 91.3089 136.997 92.0016 136.997 92.7987C136.997 92.8746 136.992 92.96 136.982 93.0549C136.982 93.1497 136.978 93.2399 136.968 93.3253H130.634V92.1439H136.029L135.331 92.514C135.341 92.0775 135.251 91.6932 135.061 91.3611C134.871 91.029 134.61 90.7681 134.278 90.5783C133.955 90.3885 133.581 90.2937 133.154 90.2937C132.717 90.2937 132.333 90.3885 132.001 90.5783C131.678 90.7681 131.422 91.0338 131.232 91.3754C131.052 91.7075 130.962 92.1012 130.962 92.5567V92.8414C130.962 93.2968 131.066 93.7001 131.275 94.0512C131.484 94.4022 131.778 94.6727 132.157 94.8624C132.537 95.0522 132.973 95.1471 133.467 95.1471C133.894 95.1471 134.278 95.0807 134.62 94.9478C134.961 94.815 135.265 94.6062 135.531 94.3216L136.484 95.4175C136.143 95.816 135.711 96.1244 135.189 96.3427C134.677 96.5514 134.088 96.6558 133.424 96.6558ZM142.468 96.5562V95.019L142.368 94.6916V92.0016C142.368 91.4797 142.212 91.0765 141.899 90.7918C141.586 90.4977 141.111 90.3506 140.475 90.3506C140.048 90.3506 139.626 90.417 139.209 90.5499C138.801 90.6827 138.454 90.8677 138.17 91.1049L137.472 89.8097C137.88 89.4966 138.364 89.2641 138.924 89.1123C139.493 88.951 140.082 88.8704 140.689 88.8704C141.79 88.8704 142.639 89.136 143.237 89.6674C143.844 90.1893 144.147 91.0006 144.147 92.1012V96.5562H142.468ZM140.077 96.6558C139.508 96.6558 139.009 96.5609 138.582 96.3711C138.155 96.1719 137.823 95.9014 137.586 95.5598C137.358 95.2088 137.245 94.815 137.245 94.3785C137.245 93.9515 137.344 93.5672 137.543 93.2256C137.752 92.8841 138.089 92.6136 138.554 92.4144C139.019 92.2151 139.636 92.1155 140.404 92.1155H142.61V93.2968H140.532C139.925 93.2968 139.517 93.3964 139.308 93.5957C139.1 93.7855 138.995 94.0227 138.995 94.3073C138.995 94.63 139.123 94.8862 139.379 95.0759C139.636 95.2657 139.991 95.3606 140.447 95.3606C140.883 95.3606 141.272 95.261 141.614 95.0617C141.965 94.8624 142.217 94.5683 142.368 94.1793L142.667 95.2467C142.496 95.6927 142.188 96.039 141.742 96.2857C141.306 96.5324 140.751 96.6558 140.077 96.6558ZM145.719 96.5562V85.9953H147.498V96.5562H145.719ZM152.694 96.6558C151.85 96.6558 151.11 96.4897 150.474 96.1576C149.848 95.816 149.359 95.3511 149.008 94.7628C148.666 94.1745 148.495 93.5056 148.495 92.756C148.495 91.9969 148.661 91.3279 148.994 90.7491C149.335 90.1608 149.8 89.7006 150.388 89.3685C150.986 89.0364 151.665 88.8704 152.424 88.8704C153.164 88.8704 153.823 89.0317 154.402 89.3543C154.981 89.6769 155.436 90.1324 155.768 90.7206C156.101 91.3089 156.267 92.0016 156.267 92.7987C156.267 92.8746 156.262 92.96 156.252 93.0549C156.252 93.1497 156.248 93.2399 156.238 93.3253H149.904V92.1439H155.299L154.601 92.514C154.611 92.0775 154.521 91.6932 154.331 91.3611C154.141 91.029 153.88 90.7681 153.548 90.5783C153.226 90.3885 152.851 90.2937 152.424 90.2937C151.987 90.2937 151.603 90.3885 151.271 90.5783C150.948 90.7681 150.692 91.0338 150.502 91.3754C150.322 91.7075 150.232 92.1012 150.232 92.5567V92.8414C150.232 93.2968 150.336 93.7001 150.545 94.0512C150.754 94.4022 151.048 94.6727 151.427 94.8624C151.807 95.0522 152.243 95.1471 152.737 95.1471C153.164 95.1471 153.548 95.0807 153.89 94.9478C154.231 94.815 154.535 94.6062 154.801 94.3216L155.754 95.4175C155.413 95.816 154.981 96.1244 154.459 96.3427C153.947 96.5514 153.358 96.6558 152.694 96.6558ZM157.264 96.5562V88.9558H158.958V91.048L158.758 90.436C158.986 89.9236 159.342 89.5346 159.826 89.2689C160.319 89.0032 160.931 88.8704 161.662 88.8704V90.5641C161.586 90.5451 161.515 90.5356 161.448 90.5356C161.382 90.5261 161.316 90.5214 161.249 90.5214C160.575 90.5214 160.039 90.7206 159.641 91.1192C159.242 91.5082 159.043 92.0918 159.043 92.8698V96.5562H157.264ZM164.513 96.5562L168.996 86.5931H170.818L175.315 96.5562H173.38L169.523 87.5752H170.263L166.42 96.5562H164.513ZM166.576 94.2504L167.075 92.7987H172.455L172.953 94.2504H166.576ZM179.913 96.6558C179.296 96.6558 178.732 96.5135 178.219 96.2288C177.716 95.9441 177.313 95.5171 177.009 94.9478C176.715 94.369 176.568 93.6384 176.568 92.756C176.568 91.864 176.711 91.1334 176.995 90.5641C177.289 89.9948 177.688 89.5725 178.191 89.2974C178.694 89.0127 179.268 88.8704 179.913 88.8704C180.663 88.8704 181.322 89.0317 181.891 89.3543C182.47 89.6769 182.926 90.1276 183.258 90.7064C183.599 91.2852 183.77 91.9684 183.77 92.756C183.77 93.5435 183.599 94.2314 183.258 94.8197C182.926 95.3985 182.47 95.8492 181.891 96.1719C181.322 96.4945 180.663 96.6558 179.913 96.6558ZM175.7 99.3173V88.9558H177.394V90.7491L177.337 92.7702L177.479 94.7913V99.3173H175.7ZM179.714 95.1329C180.141 95.1329 180.52 95.038 180.852 94.8482C181.194 94.6584 181.464 94.3833 181.664 94.0227C181.863 93.6621 181.963 93.2399 181.963 92.756C181.963 92.2626 181.863 91.8403 181.664 91.4892C181.464 91.1287 181.194 90.8535 180.852 90.6637C180.52 90.4739 180.141 90.3791 179.714 90.3791C179.287 90.3791 178.902 90.4739 178.561 90.6637C178.219 90.8535 177.949 91.1287 177.75 91.4892C177.55 91.8403 177.451 92.2626 177.451 92.756C177.451 93.2399 177.55 93.6621 177.75 94.0227C177.949 94.3833 178.219 94.6584 178.561 94.8482C178.902 95.038 179.287 95.1329 179.714 95.1329ZM188.959 96.6558C188.342 96.6558 187.777 96.5135 187.265 96.2288C186.762 95.9441 186.359 95.5171 186.055 94.9478C185.761 94.369 185.614 93.6384 185.614 92.756C185.614 91.864 185.756 91.1334 186.041 90.5641C186.335 89.9948 186.734 89.5725 187.236 89.2974C187.739 89.0127 188.313 88.8704 188.959 88.8704C189.708 88.8704 190.368 89.0317 190.937 89.3543C191.516 89.6769 191.971 90.1276 192.303 90.7064C192.645 91.2852 192.816 91.9684 192.816 92.756C192.816 93.5435 192.645 94.2314 192.303 94.8197C191.971 95.3985 191.516 95.8492 190.937 96.1719C190.368 96.4945 189.708 96.6558 188.959 96.6558ZM184.746 99.3173V88.9558H186.439V90.7491L186.383 92.7702L186.525 94.7913V99.3173H184.746ZM188.759 95.1329C189.186 95.1329 189.566 95.038 189.898 94.8482C190.24 94.6584 190.51 94.3833 190.709 94.0227C190.909 93.6621 191.008 93.2399 191.008 92.756C191.008 92.2626 190.909 91.8403 190.709 91.4892C190.51 91.1287 190.24 90.8535 189.898 90.6637C189.566 90.4739 189.186 90.3791 188.759 90.3791C188.332 90.3791 187.948 90.4739 187.607 90.6637C187.265 90.8535 186.995 91.1287 186.795 91.4892C186.596 91.8403 186.496 92.2626 186.496 92.756C186.496 93.2399 186.596 93.6621 186.795 94.0227C186.995 94.3833 187.265 94.6584 187.607 94.8482C187.948 95.038 188.332 95.1329 188.759 95.1329ZM197.184 96.5562V86.5931H199.034V96.5562H197.184ZM205.159 88.8704C205.767 88.8704 206.307 88.989 206.782 89.2262C207.266 89.4634 207.645 89.8287 207.92 90.3221C208.196 90.806 208.333 91.4323 208.333 92.2009V96.5562H206.554V92.4286C206.554 91.7549 206.393 91.252 206.07 90.9199C205.757 90.5878 205.316 90.4218 204.747 90.4218C204.329 90.4218 203.959 90.5072 203.636 90.6779C203.314 90.8487 203.062 91.1049 202.882 91.4465C202.711 91.7786 202.626 92.2009 202.626 92.7133V96.5562H200.847V88.9558H202.54V91.0053L202.242 90.3791C202.507 89.8951 202.892 89.5251 203.394 89.2689C203.907 89.0032 204.495 88.8704 205.159 88.8704ZM213.379 96.6558C212.582 96.6558 211.871 96.4897 211.245 96.1576C210.628 95.816 210.144 95.3511 209.793 94.7628C209.442 94.1745 209.266 93.5056 209.266 92.756C209.266 91.9969 209.442 91.3279 209.793 90.7491C210.144 90.1608 210.628 89.7006 211.245 89.3685C211.871 89.0364 212.582 88.8704 213.379 88.8704C214.12 88.8704 214.77 89.0222 215.329 89.3258C215.899 89.62 216.33 90.0564 216.625 90.6353L215.258 91.4323C215.031 91.0717 214.751 90.806 214.419 90.6353C214.096 90.4645 213.745 90.3791 213.365 90.3791C212.929 90.3791 212.535 90.4739 212.184 90.6637C211.833 90.8535 211.558 91.1287 211.358 91.4892C211.159 91.8403 211.06 92.2626 211.06 92.756C211.06 93.2494 211.159 93.6764 211.358 94.0369C211.558 94.388 211.833 94.6584 212.184 94.8482C212.535 95.038 212.929 95.1329 213.365 95.1329C213.745 95.1329 214.096 95.0475 214.419 94.8767C214.751 94.7059 215.031 94.4402 215.258 94.0796L216.625 94.8767C216.33 95.446 215.899 95.8872 215.329 96.2003C214.77 96.504 214.12 96.6558 213.379 96.6558Z" fill="#D81F26"/>
</svg>
