<svg width="24" height="24" viewBox="0 0 24 24" fill="none" xmlns="http://www.w3.org/2000/svg">
<path d="M12 18C10.325 18 8.90625 17.4187 7.74375 16.2562C6.58125 15.0938 6 13.675 6 12C6 10.325 6.58125 8.90625 7.74375 7.74375C8.90625 6.58125 10.325 6 12 6C12.8625 6 13.6875 6.178 14.475 6.534C15.2625 6.89 15.9375 7.3995 16.5 8.0625V6.75C16.5 6.5375 16.572 6.3595 16.716 6.216C16.86 6.0725 17.038 6.0005 17.25 6C17.462 5.9995 17.6402 6.0715 17.7847 6.216C17.9292 6.3605 18.001 6.5385 18 6.75V10.5C18 10.7125 17.928 10.8908 17.784 11.0348C17.64 11.1788 17.462 11.2505 17.25 11.25H13.5C13.2875 11.25 13.1095 11.178 12.966 11.034C12.8225 10.89 12.7505 10.712 12.75 10.5C12.7495 10.288 12.8215 10.11 12.966 9.966C13.1105 9.822 13.2885 9.75 13.5 9.75H15.9C15.5 9.05 14.9532 8.5 14.2597 8.1C13.5662 7.7 12.813 7.5 12 7.5C10.75 7.5 9.6875 7.9375 8.8125 8.8125C7.9375 9.6875 7.5 10.75 7.5 12C7.5 13.25 7.9375 14.3125 8.8125 15.1875C9.6875 16.0625 10.75 16.5 12 16.5C12.85 16.5 13.6282 16.2845 14.3347 15.8535C15.0412 15.4225 15.588 14.8443 15.975 14.1188C16.075 13.9438 16.2157 13.822 16.3972 13.7535C16.5787 13.685 16.763 13.6818 16.95 13.7438C17.15 13.8063 17.2937 13.9375 17.3812 14.1375C17.4687 14.3375 17.4625 14.525 17.3625 14.7C16.85 15.7 16.1187 16.5 15.1687 17.1C14.2187 17.7 13.1625 18 12 18Z" fill="#94A3B8"/>
</svg>
