<svg width="21" height="22" viewBox="0 0 21 22" fill="none" xmlns="http://www.w3.org/2000/svg">
<path d="M9.95275 19.883H3.10653C2.54784 19.883 2.01204 19.6611 1.61699 19.266C1.22194 18.871 1 18.3352 1 17.7765V5.13729C1 4.5786 1.22194 4.0428 1.61699 3.64775C2.01204 3.2527 2.54784 3.03076 3.10653 3.03076H15.7457C16.3044 3.03076 16.8402 3.2527 17.2352 3.64775C17.6303 4.0428 17.8522 4.5786 17.8522 5.13729V10.4036" stroke="#F5A413" stroke-width="0.916671" stroke-linecap="round" stroke-linejoin="round"/>
<path d="M13.6401 0.930176V5.14324" stroke="#F5A413" stroke-width="0.916671" stroke-linecap="round" stroke-linejoin="round"/>
<path d="M5.21289 0.930176V5.14324" stroke="#F5A413" stroke-width="0.916671" stroke-linecap="round" stroke-linejoin="round"/>
<path d="M1 9.35938H17.8522" stroke="#F5A413" stroke-width="0.916671" stroke-linecap="round" stroke-linejoin="round"/>
<path d="M13.6401 17.7701C13.6401 18.6082 13.973 19.4119 14.5656 20.0045C15.1582 20.597 15.9619 20.9299 16.7999 20.9299C17.638 20.9299 18.4417 20.597 19.0342 20.0045C19.6268 19.4119 19.9597 18.6082 19.9597 17.7701C19.9597 16.9321 19.6268 16.1284 19.0342 15.5358C18.4417 14.9433 17.638 14.6104 16.7999 14.6104C15.9619 14.6104 15.1582 14.9433 14.5656 15.5358C13.973 16.1284 13.6401 16.9321 13.6401 17.7701Z" stroke="#F5A413" stroke-width="0.916671" stroke-linecap="round" stroke-linejoin="round"/>
</svg>
