<svg width="27" height="22" viewBox="0 0 27 22" fill="none" xmlns="http://www.w3.org/2000/svg">
<path d="M0.5 20.9254C2.42544 19.8138 4.60958 19.2285 6.83288 19.2285C9.05619 19.2285 11.2403 19.8138 13.1658 20.9254C15.0912 19.8138 17.2753 19.2285 19.4986 19.2285C21.722 19.2285 23.9061 19.8138 25.8315 20.9254" stroke="#916EEA" stroke-linecap="round" stroke-linejoin="round"/>
<path d="M0.5 2.62707C2.42544 1.51541 4.60958 0.930176 6.83288 0.930176C9.05619 0.930176 11.2403 1.51541 13.1658 2.62707C15.0912 1.51541 17.2753 0.930176 19.4986 0.930176C21.722 0.930176 23.9061 1.51541 25.8315 2.62707" stroke="#916EEA" stroke-linecap="round" stroke-linejoin="round"/>
<path d="M0.5 2.63525V20.9302" stroke="#916EEA" stroke-linecap="round" stroke-linejoin="round"/>
<path d="M13.1655 2.63525V20.9302" stroke="#916EEA" stroke-linecap="round" stroke-linejoin="round"/>
<path d="M25.8315 2.63525V20.9302" stroke="#916EEA" stroke-linecap="round" stroke-linejoin="round"/>
</svg>
