<svg width="41" height="41" viewBox="0 0 41 41" fill="none" xmlns="http://www.w3.org/2000/svg">
<rect x="0.0473633" y="0.430176" width="40" height="40" rx="20" fill="url(#paint0_linear_5860_17421)"/>
<path d="M27.2299 16.1307C27.6424 16.6405 28.2731 16.9664 28.9799 16.9664C30.2225 16.9664 31.2299 15.959 31.2299 14.7164C31.2299 14.6731 31.2244 14.6312 31.214 14.5911C31.2413 14.4856 31.2345 14.3705 31.1868 14.2632L29.4507 10.3571C29.21 9.81541 28.6728 9.46631 28.08 9.46631H12.3798C11.7871 9.46631 11.2499 9.81541 11.0091 10.3571L9.27308 14.2632C9.22538 14.3705 9.21853 14.4856 9.24581 14.5911C9.23548 14.6312 9.22998 14.6731 9.22998 14.7164C9.22998 15.959 10.2373 16.9664 11.48 16.9664C12.1868 16.9664 12.8175 16.6405 13.23 16.1307C13.6424 16.6405 14.2731 16.9664 14.9799 16.9664C15.6868 16.9664 16.3175 16.6405 16.7299 16.1307C17.1424 16.6405 17.7731 16.9664 18.4799 16.9664C19.1867 16.9664 19.8174 16.6405 20.2299 16.1307C20.6424 16.6405 21.2731 16.9664 21.9799 16.9664C22.6867 16.9664 23.3174 16.6405 23.7299 16.1307C24.1424 16.6405 24.7731 16.9664 25.4799 16.9664C26.1867 16.9664 26.8174 16.6405 27.2299 16.1307ZM27.5834 14.3629C27.4929 14.2724 27.3679 14.2164 27.2299 14.2164C26.9537 14.2164 26.7299 14.4403 26.7299 14.7164C26.7299 15.4068 26.1702 15.9664 25.4799 15.9664C24.7895 15.9664 24.2299 15.4068 24.2299 14.7164C24.2299 14.5783 24.1739 14.4533 24.0835 14.3629C23.993 14.2724 23.868 14.2164 23.7299 14.2164C23.4538 14.2164 23.2299 14.4403 23.2299 14.7164C23.2299 15.4068 22.6703 15.9664 21.9799 15.9664C21.2896 15.9664 20.7299 15.4068 20.7299 14.7164C20.7299 14.4403 20.5061 14.2164 20.2299 14.2164C20.0919 14.2164 19.9669 14.2724 19.8764 14.3629C19.7859 14.4533 19.7299 14.5783 19.7299 14.7164C19.7299 15.4068 19.1703 15.9664 18.4799 15.9664C17.7896 15.9664 17.2299 15.4068 17.2299 14.7164C17.2299 14.5783 17.174 14.4533 17.0835 14.3629C16.993 14.2724 16.868 14.2164 16.7299 14.2164C16.4538 14.2164 16.2299 14.4403 16.2299 14.7164C16.2299 15.4068 15.6703 15.9664 14.9799 15.9664C14.2896 15.9664 13.73 15.4068 13.73 14.7164C13.73 14.4403 13.5061 14.2164 13.23 14.2164C13.0919 14.2164 12.9669 14.2724 12.8764 14.3629C12.7859 14.4533 12.73 14.5783 12.73 14.7164C12.73 15.4068 12.1703 15.9664 11.48 15.9664C10.7896 15.9664 10.23 15.4068 10.23 14.7164C10.23 14.677 10.2254 14.6387 10.2168 14.602L11.9229 10.7632C12.0032 10.5827 12.1822 10.4663 12.3798 10.4663H28.08C28.2776 10.4663 28.4567 10.5827 28.5369 10.7632L30.243 14.602C30.2344 14.6387 30.2299 14.677 30.2299 14.7164C30.2299 15.4068 29.6702 15.9664 28.9799 15.9664C28.2895 15.9664 27.7299 15.4068 27.7299 14.7164C27.7299 14.5783 27.6739 14.4533 27.5834 14.3629ZM24.1127 24.2045L24.8209 24.0704C24.8592 24.0631 24.8964 24.0506 24.9312 24.0331C25.1399 23.9288 25.2245 23.675 25.1202 23.4664L25.0084 23.2427C24.9237 23.0734 24.7505 22.9664 24.5611 22.9664H23.7004C23.622 22.9664 23.5465 22.9847 23.479 23.0181L23.1251 21.7796C22.8185 20.7063 21.8375 19.9664 20.7213 19.9664H14.7386C13.6224 19.9664 12.6414 20.7063 12.3348 21.7796L11.99 22.9862C11.9455 22.9732 11.8986 22.9664 11.8506 22.9664H10.9097C10.7238 22.9664 10.5533 23.0695 10.4669 23.2341L10.3451 23.4664C10.2379 23.6708 10.3167 23.9234 10.5211 24.0306C10.5577 24.0498 10.597 24.0635 10.6376 24.0711L11.3466 24.2051L10.738 24.8869C10.4108 25.2534 10.23 25.7275 10.23 26.2188V29.9663C10.23 30.7947 10.9015 31.4663 11.73 31.4663H13.23C13.8831 31.4663 14.4387 31.0489 14.6446 30.4663H20.8153C21.0212 31.0489 21.5768 31.4663 22.2299 31.4663H23.7299C24.5583 31.4663 25.2299 30.7947 25.2299 29.9663V26.2188C25.2299 25.7275 25.0491 25.2534 24.7219 24.8869L24.1127 24.2045ZM11.2336 26.1343C11.2518 25.9192 11.3392 25.715 11.484 25.5529L12.4018 24.5247L13.5115 24.8021C13.9478 24.9112 14.3958 24.9663 14.8455 24.9663H20.6144C21.0641 24.9663 21.5121 24.9112 21.9483 24.8021L23.0581 24.5247L23.9759 25.5529C24.1206 25.715 24.2081 25.9192 24.2263 26.1342L21.7297 26.9663C21.735 27.3457 22.7475 27.7348 24.2299 27.5484V29.9663C24.2299 30.2425 24.006 30.4663 23.7299 30.4663H22.2299C21.9538 30.4663 21.7299 30.2425 21.7299 29.9663C21.7299 29.9126 21.7212 29.8592 21.7043 29.8082L21.3182 28.6501C21.1821 28.2418 20.8 27.9663 20.3695 27.9663H15.0903C14.6599 27.9663 14.2778 28.2418 14.1417 28.6501L13.7556 29.8082C13.7386 29.8592 13.73 29.9126 13.73 29.9663C13.73 30.2425 13.5061 30.4663 13.23 30.4663H11.73C11.4538 30.4663 11.23 30.2425 11.23 29.9663V27.5484C12.7123 27.7348 13.7246 27.3457 13.73 26.9663L11.2336 26.1343ZM20.5362 29.4663H14.9237L15.0903 28.9663H20.3695L20.5362 29.4663ZM13.2963 22.0543C13.4803 21.4103 14.0688 20.9664 14.7386 20.9664H20.7213C21.391 20.9664 21.9796 21.4103 22.1636 22.0543L22.6071 23.6067L21.7058 23.832C21.3489 23.9212 20.9823 23.9664 20.6144 23.9664H14.8455C14.4776 23.9664 14.111 23.9212 13.7541 23.832L12.8527 23.6067L13.2963 22.0543ZM11.73 17.9664C11.73 17.6902 11.5061 17.4664 11.23 17.4664C10.9538 17.4664 10.73 17.6902 10.73 17.9664V19.4664C10.73 19.7425 10.9538 19.9664 11.23 19.9664C11.5061 19.9664 11.73 19.7425 11.73 19.4664V17.9664ZM26.7299 29.9663C26.4537 29.9663 26.2299 30.1902 26.2299 30.4663C26.2299 30.7425 26.4537 30.9663 26.7299 30.9663H28.2299C29.0583 30.9663 29.7299 30.2947 29.7299 29.4663V17.9664C29.7299 17.6902 29.506 17.4664 29.2299 17.4664C28.9537 17.4664 28.7299 17.6902 28.7299 17.9664V29.4663C28.7299 29.7425 28.506 29.9663 28.2299 29.9663H26.7299Z" fill="#E3D9FF" stroke="#E3D9FF" stroke-width="0.231368"/>
<defs>
<linearGradient id="paint0_linear_5860_17421" x1="0.0473633" y1="0.430176" x2="40.0474" y2="40.4302" gradientUnits="userSpaceOnUse">
<stop stop-color="#C39DEF"/>
<stop offset="1" stop-color="#7A58E7"/>
</linearGradient>
</defs>
</svg>
