<svg width="41" height="41" viewBox="0 0 41 41" fill="none" xmlns="http://www.w3.org/2000/svg">
<path d="M0.404785 20.9302C0.404785 9.88448 9.35909 0.930176 20.4048 0.930176C31.4505 0.930176 40.4048 9.88448 40.4048 20.9302C40.4048 31.9759 31.4505 40.9302 20.4048 40.9302C9.35909 40.9302 0.404785 31.9759 0.404785 20.9302Z" fill="url(#paint0_linear_5860_17455)"/>
<path d="M22.8862 28.0652H28.5419V25.5969C28.5419 25.3398 28.7477 25.16 28.9787 25.16C29.2097 25.161 29.4155 25.3408 29.4155 25.5979V28.0662L31.7292 28.0652V26.4203C31.7292 22.6665 28.6705 19.6078 24.9167 19.6078C23.3742 19.6078 21.9341 20.0959 20.7261 21.0479C20.5202 21.2025 20.2632 21.1764 20.1095 20.9705C19.9549 20.7647 19.981 20.5076 20.1869 20.354C20.9581 19.7625 21.8066 19.3257 22.7315 19.0425C21.2152 18.2451 20.1607 16.6515 20.1607 14.8269C20.1607 12.205 22.2947 10.071 24.9166 10.071C27.5385 10.0449 29.6725 12.1789 29.6725 14.8007C29.6725 16.6264 28.6442 18.2201 27.1018 19.0162C30.289 19.9672 32.6289 22.9235 32.6289 26.3941V28.5019C32.6289 28.759 32.423 28.9387 32.1921 28.9387H22.8862C22.6291 28.9387 22.4494 28.7328 22.4494 28.5019C22.4484 28.2709 22.6291 28.0652 22.8862 28.0652ZM28.7989 14.8006C28.7989 12.6667 27.0767 10.9445 24.9428 10.9445C22.8089 10.9445 21.0867 12.6667 21.0867 14.8006C21.0867 16.9345 22.8089 18.6567 24.9428 18.6567C27.0757 18.6567 28.7989 16.9345 28.7989 14.8006Z" fill="#FFC5D5" stroke="#FFC5D5" stroke-width="0.385614"/>
<path d="M8.30884 23.8236C8.38616 23.7212 8.5147 23.669 8.64324 23.669H9.80008L11.6769 20.4054C11.8055 20.1996 12.0626 20.1222 12.2935 20.2508C12.4743 20.3793 12.5506 20.6364 12.4482 20.8673L10.8284 23.6952H19.5438L17.924 20.8673C17.7954 20.6615 17.8728 20.3793 18.0786 20.2508C18.2845 20.1222 18.5667 20.1996 18.6952 20.4054L20.572 23.67H21.7028C21.8313 23.67 21.9598 23.7212 22.0372 23.8247C22.1145 23.9271 22.1657 24.0556 22.1396 24.1842L21.1374 30.3028C20.9577 31.4085 20.0067 32.2309 18.8749 32.2309H11.446C10.3152 32.2309 9.36325 31.4335 9.1835 30.3028L8.18132 24.1842C8.18031 24.0556 8.23252 23.9271 8.30884 23.8236ZM10.0832 30.1742C10.1857 30.8681 10.7771 31.3571 11.471 31.3571L18.901 31.3561C19.5949 31.3561 20.1864 30.8681 20.2888 30.1732L21.1886 24.5697H9.15721L10.0832 30.1742Z" fill="#FFC5D5" stroke="#FFC5D5" stroke-width="0.385614"/>
<path d="M18.0261 30.0176C17.769 30.0176 17.5892 29.8117 17.5892 29.5808V26.3411C17.5892 26.084 17.7951 25.9043 18.0261 25.9043C18.2831 25.9043 18.4629 26.1102 18.4629 26.3411V29.5546C18.4629 29.8116 18.258 30.0176 18.0261 30.0176Z" fill="#FFC5D5" stroke="#FFC5D5" stroke-width="0.385614"/>
<path d="M15.1733 30.0176C14.9162 30.0176 14.7364 29.8117 14.7364 29.5808L14.7354 26.3411C14.7354 26.084 14.9413 25.9043 15.1723 25.9043C15.4032 25.9043 15.6091 26.1102 15.6091 26.3411V29.5546C15.6352 29.8116 15.4303 30.0176 15.1733 30.0176Z" fill="#FFC5D5" stroke="#FFC5D5" stroke-width="0.385614"/>
<path d="M12.3459 30.0176C12.0888 30.0176 11.9091 29.8117 11.9091 29.5808L11.9081 26.3411C11.9081 26.084 12.1139 25.9043 12.3449 25.9043C12.602 25.9043 12.7817 26.1102 12.7817 26.3411V29.5546C12.7827 29.8116 12.5769 30.0176 12.3459 30.0176Z" fill="#FFC5D5" stroke="#FFC5D5" stroke-width="0.385614"/>
<defs>
<linearGradient id="paint0_linear_5860_17455" x1="0.404785" y1="0.930176" x2="40.4048" y2="40.9302" gradientUnits="userSpaceOnUse">
<stop stop-color="#F7A1B8"/>
<stop offset="1" stop-color="#E62055"/>
</linearGradient>
</defs>
</svg>
