<svg width="41" height="41" viewBox="0 0 41 41" fill="none" xmlns="http://www.w3.org/2000/svg">
<path d="M0.952148 20.9302C0.952148 9.88448 9.90645 0.930176 20.9521 0.930176C31.9978 0.930176 40.9521 9.88448 40.9521 20.9302C40.9521 31.9759 31.9978 40.9302 20.9521 40.9302C9.90645 40.9302 0.952148 31.9759 0.952148 20.9302Z" fill="url(#paint0_linear_5860_17444)"/>
<path d="M11.5581 31.9307H29.4375C30.3119 31.9287 31.1438 31.5593 31.725 30.9133C32.3062 30.2674 32.5801 29.4078 32.4781 28.5491L31.6077 21.3299C31.4369 19.9151 30.3503 18.777 28.931 18.5235L24.5107 17.7498C25.2395 16.7694 25.5741 15.5564 25.4498 14.3454C25.3254 13.1354 24.7503 12.0142 23.8365 11.1976C22.9227 10.3819 21.735 9.93066 20.5028 9.93066C19.2705 9.93066 18.0828 10.3819 17.169 11.1976C16.2542 12.0133 15.6791 13.1345 15.5547 14.3444C15.4294 15.5554 15.764 16.7685 16.4928 17.7488L12.0614 18.5245C10.6432 18.7791 9.55856 19.9173 9.38774 21.3309L8.51843 28.5471L8.51742 28.5481C8.4224 29.4047 8.69835 30.2613 9.27756 30.9063C9.85676 31.5512 10.6857 31.9227 11.5581 31.9307ZM13.9133 30.3333H11.5581C11.1467 30.3293 10.7555 30.1535 10.4815 29.849C10.2086 29.5445 10.0782 29.1392 10.1247 28.7348L10.994 21.5186C11.0779 20.8038 11.6248 20.2267 12.3414 20.0979L18.0434 19.0996H18.0445C19.5718 19.9302 21.4237 19.9302 22.951 19.0996L28.6509 20.0969C29.3686 20.2257 29.9164 20.8018 30.0014 21.5166L30.8717 28.7369C30.9162 29.1413 30.7858 29.5446 30.5129 29.8491C30.2399 30.1537 29.8488 30.3294 29.4374 30.3334H27.0832C27.1943 30.3433 27.6624 24.6517 27.7028 24.4569C27.7594 23.809 27.54 23.167 27.0973 22.6858C26.6546 22.2046 26.0279 21.928 25.3698 21.924H15.6266C14.9686 21.928 14.3419 22.2046 13.8981 22.6858C13.4554 23.167 13.236 23.809 13.2936 24.4569L13.8102 29.8352C13.8253 30.004 13.8607 30.1715 13.9133 30.3333ZM25.369 23.5204C25.5732 23.5224 25.7673 23.6072 25.9048 23.756C26.0422 23.9057 26.111 24.1044 26.0928 24.3051L25.5762 29.6834C25.5419 30.0528 25.2285 30.3343 24.8535 30.3333H16.1423C15.7673 30.3343 15.4539 30.0528 15.4195 29.6834L14.903 24.3051C14.8848 24.1044 14.9525 23.9057 15.09 23.757C15.2275 23.6072 15.4226 23.5224 15.6257 23.5214L25.369 23.5204ZM22.1585 17.7078C16.8172 19.9991 14.9634 11.7915 20.4977 11.5278C23.8234 11.379 25.2122 16.0215 22.1585 17.7078ZM20.4977 28.8948C21.0314 28.8928 21.5419 28.6802 21.9149 28.3038C22.2879 27.9274 22.4931 27.4182 22.4829 26.8921C22.4739 26.3649 22.2505 25.8647 21.8633 25.5013C21.4772 25.1389 20.9596 24.9442 20.4259 24.9612C19.3383 24.9971 18.4811 25.8877 18.5003 26.9629C18.5205 28.0372 19.409 28.8978 20.4977 28.8948ZM20.4977 26.5576C20.5998 26.5536 20.6988 26.5906 20.7726 26.6595C20.8464 26.7293 20.8879 26.8262 20.8879 26.927C20.8879 27.0279 20.8464 27.1247 20.7726 27.1946C20.6988 27.2645 20.5998 27.3014 20.4977 27.2974C20.3956 27.3014 20.2965 27.2645 20.2227 27.1946C20.149 27.1247 20.1065 27.0279 20.1065 26.927C20.1065 26.8262 20.149 26.7303 20.2217 26.6604C20.2955 26.5906 20.3956 26.5536 20.4977 26.5576ZM20.4977 17.1937C21.3043 17.2337 22.6406 16.6346 22.0402 15.6812C21.9179 15.5064 21.7309 15.3876 21.5186 15.3497C21.3074 15.3128 21.09 15.3607 20.9142 15.4825C20.6574 15.6322 20.339 15.6322 20.0823 15.4825C19.7153 15.2299 19.2119 15.3197 18.9562 15.6812C18.3568 16.6346 19.69 17.2326 20.4977 17.1937Z" fill="#B2D7F2"/>
<defs>
<linearGradient id="paint0_linear_5860_17444" x1="0.952148" y1="0.930176" x2="40.9521" y2="40.9302" gradientUnits="userSpaceOnUse">
<stop stop-color="#83B0FF"/>
<stop offset="1" stop-color="#0962FD"/>
</linearGradient>
</defs>
</svg>
