<svg width="41" height="41" viewBox="0 0 41 41" fill="none" xmlns="http://www.w3.org/2000/svg">
<path d="M0.5 20.9302C0.5 9.88448 9.45431 0.930176 20.5 0.930176C31.5457 0.930176 40.5 9.88448 40.5 20.9302C40.5 31.9759 31.5457 40.9302 20.5 40.9302C9.45431 40.9302 0.5 31.9759 0.5 20.9302Z" fill="url(#paint0_linear_5860_17433)"/>
<path fill-rule="evenodd" clip-rule="evenodd" d="M15.7035 24.8437C16.1376 24.8437 16.4892 25.1953 16.4892 25.6294C16.4892 26.0635 16.1376 26.4152 15.7035 26.4152C15.2694 26.4152 14.9177 26.0626 14.9177 25.6294C14.9177 25.1962 15.2703 24.8437 15.7035 24.8437ZM15.7035 27.9867C17.0039 27.9867 18.0607 26.9289 18.0607 25.6294C18.0607 24.33 17.0039 23.2722 15.7035 23.2722C14.4031 23.2722 13.3462 24.329 13.3462 25.6294C13.3462 26.9298 14.404 27.9867 15.7035 27.9867ZM10.989 26.0665V25.1923H11.6038C11.9515 25.1923 12.258 24.9635 12.3572 24.6305C12.4249 24.4017 12.5173 24.1787 12.6312 23.9685C12.7982 23.6631 12.7422 23.2839 12.4956 23.0384L12.0615 22.6042L12.6793 21.9865L13.1134 22.4206C13.359 22.6652 13.7362 22.7211 14.0426 22.5561C14.2528 22.4422 14.4767 22.3499 14.7065 22.2811C15.0395 22.1819 15.2674 21.8755 15.2674 21.5288V20.9139H16.1406V21.5288C16.1406 21.8764 16.3684 22.1829 16.7014 22.2811C16.9312 22.3499 17.1552 22.4422 17.3663 22.5561C17.6718 22.7211 18.0489 22.6652 18.2945 22.4206L18.7286 21.9865L19.3464 22.6042L18.9123 23.0384C18.6667 23.2839 18.6117 23.6631 18.7767 23.9685C18.8907 24.1787 18.983 24.4017 19.0518 24.6305C19.151 24.9635 19.4574 25.1923 19.8041 25.1923H20.418V26.0665H19.8041C19.4564 26.0665 19.15 26.2944 19.0518 26.6273C18.983 26.8572 18.8907 27.0791 18.7767 27.2893C18.6108 27.5948 18.6658 27.9739 18.9123 28.2194L19.3464 28.6536L18.7286 29.2704L18.2945 28.8363C18.1432 28.685 17.9429 28.6064 17.7386 28.6064C17.6109 28.6064 17.4832 28.6369 17.3663 28.6997C17.1552 28.8137 16.9312 28.906 16.7014 28.9748C16.3684 29.074 16.1406 29.3804 16.1406 29.7271V30.342H15.2674V29.7271C15.2674 29.3794 15.0395 29.073 14.7065 28.9748C14.4767 28.906 14.2528 28.8137 14.0426 28.6997C13.7361 28.5347 13.359 28.5917 13.1134 28.8353L12.6793 29.2694L12.0615 28.6526L12.4956 28.2185C12.7412 27.9729 12.7972 27.5938 12.6312 27.2883C12.5173 27.0781 12.4249 26.8552 12.3572 26.6263C12.257 26.2934 11.9505 26.0655 11.6038 26.0655H10.989V26.0665ZM28.972 27.9385C26.2484 28.8628 23.5326 29.0062 20.8945 28.3854C20.8464 28.1075 20.7265 27.8491 20.5409 27.6331C21.3502 27.5702 21.9896 26.8915 21.9896 26.0665V25.1923C21.9896 24.3663 21.3502 23.6876 20.5409 23.6257C20.7855 23.3409 20.9181 22.9833 20.9181 22.6042C20.9181 22.3989 20.8778 22.2015 20.8031 22.0169C21.7716 21.2999 22.9424 20.907 24.1692 20.907C27.324 20.907 29.8502 23.388 29.9267 26.4661C29.9168 26.5132 29.9129 26.5624 29.9129 26.6115C29.9129 27.2027 29.5338 27.7352 28.972 27.9385ZM10.8673 23.6258C10.057 23.6877 9.41758 24.3664 9.41758 25.1924V26.0666C9.41758 26.8926 10.057 27.5703 10.8673 27.6332C10.6227 27.917 10.4901 28.2755 10.4901 28.6547C10.4901 29.0741 10.6532 29.4689 10.9508 29.7655L11.5686 30.3833C12.152 30.9667 13.0841 30.9942 13.7009 30.4658C13.7638 31.2752 14.4415 31.9155 15.2675 31.9155H16.1407C16.9657 31.9155 17.6454 31.2761 17.7073 30.4658C18.3054 30.9785 19.2749 30.9481 19.8396 30.3833L20.3503 29.8726C21.5859 30.179 22.8363 30.3421 24.0963 30.3421C25.88 30.3421 27.6823 30.0356 29.4894 29.4218C30.6308 29.0112 31.4077 27.9691 31.4784 26.7894C31.4921 26.7325 31.5 26.6735 31.5 26.6117C31.5 22.5994 28.2391 19.3355 24.2319 19.3355C22.571 19.3355 21.03 19.8599 19.7746 20.8225C19.2029 20.3147 18.2846 20.297 17.7071 20.793C17.6452 19.9837 16.9655 19.3443 16.1405 19.3443H15.2673C14.4412 19.3443 13.7635 19.9837 13.7007 20.793C13.0839 20.2646 12.1518 20.2921 11.5683 20.8765L10.9505 21.4943C10.6539 21.7909 10.4899 22.1848 10.4899 22.6052C10.4899 22.9843 10.6225 23.3418 10.8671 23.6267L10.8673 23.6258ZM24.1926 11.486C25.7582 11.486 27.0311 12.7599 27.0311 14.3245C27.0311 15.8902 25.7572 17.1631 24.1926 17.1631C22.627 17.1631 21.3541 15.8892 21.3541 14.3245C21.3541 12.7589 22.628 11.486 24.1926 11.486ZM24.1926 18.7356C26.6245 18.7356 28.6026 16.7574 28.6026 14.3255C28.6026 11.8937 26.6245 9.91553 24.1926 9.91553C21.7607 9.91553 19.7826 11.8937 19.7826 14.3255C19.7826 16.7574 21.7607 18.7356 24.1926 18.7356Z" fill="#FFD68A"/>
<defs>
<linearGradient id="paint0_linear_5860_17433" x1="0.5" y1="0.930176" x2="40.5" y2="40.9302" gradientUnits="userSpaceOnUse">
<stop stop-color="#F5AD13"/>
<stop offset="1" stop-color="#F58F13"/>
</linearGradient>
</defs>
</svg>
