<svg width="14" height="14" viewBox="0 0 14 14" fill="none" xmlns="http://www.w3.org/2000/svg">
<path d="M11.6725 12.1625L12.1625 11.6725L10.85 10.36V8.4H10.15V10.64L11.6725 12.1625ZM1.4 12.6C1.015 12.6 0.685533 12.463 0.4116 12.1891C0.137667 11.9152 0.000466667 11.5855 0 11.2V1.4C0 1.015 0.1372 0.685533 0.4116 0.4116C0.686 0.137667 1.01547 0.000466667 1.4 0H11.2C11.585 0 11.9147 0.1372 12.1891 0.4116C12.4635 0.686 12.6005 1.01547 12.6 1.4V6.09C12.3783 5.985 12.1508 5.8947 11.9175 5.8191C11.6842 5.7435 11.445 5.68797 11.2 5.6525V1.4H1.4V11.2H5.635C5.67 11.4567 5.72553 11.7017 5.8016 11.935C5.87767 12.1683 5.96797 12.39 6.0725 12.6H1.4ZM1.4 10.5V11.2V1.4V5.6525V5.6V10.5ZM2.8 9.8H5.6525C5.6875 9.555 5.74303 9.31583 5.8191 9.0825C5.89516 8.84917 5.97963 8.62167 6.0725 8.4H2.8V9.8ZM2.8 7H7.07C7.44333 6.65 7.86053 6.35833 8.3216 6.125C8.78266 5.89167 9.27546 5.73417 9.8 5.6525V5.6H2.8V7ZM2.8 4.2H9.8V2.8H2.8V4.2ZM10.5 14C9.53166 14 8.70636 13.6586 8.0241 12.9759C7.34183 12.2932 7.00046 11.4679 7 10.5C6.99953 9.53213 7.3409 8.70683 8.0241 8.0241C8.7073 7.34137 9.5326 7 10.5 7C11.4674 7 12.2929 7.34137 12.9766 8.0241C13.6603 8.70683 14.0014 9.53213 14 10.5C13.9986 11.4679 13.6572 12.2934 12.9759 12.9766C12.2946 13.6598 11.4693 14.0009 10.5 14Z" fill="white"/>
</svg>
