<svg width="64" height="60" viewBox="0 0 64 60" fill="none" xmlns="http://www.w3.org/2000/svg">
<path opacity="0.21" d="M40.1758 0C52.8782 0.000114305 63.1758 10.2975 63.1758 23V37C63.1758 49.7025 52.8782 59.9999 40.1758 60H23.084C10.3814 60 0.0839844 49.7025 0.0839844 37V23C0.0839844 10.2975 10.3814 0 23.084 0H40.1758Z" fill="#FEC53D"/>
<path fill-rule="evenodd" clip-rule="evenodd" d="M15.8568 24.3167L29.422 31.7648C29.5681 31.845 29.7213 31.9029 29.8772 31.9397V46.3849L16.8243 39.0387C16.2246 38.7012 15.8568 38.0878 15.8568 37.4251V24.3167ZM47.4026 24.1187V37.4251C47.4026 38.0878 47.0348 38.7012 46.4352 39.0387L33.3823 46.3849V31.8131C33.4141 31.798 33.4456 31.7819 33.4768 31.7648L47.4026 24.1187Z" fill="#FEC53D"/>
<path opacity="0.499209" fill-rule="evenodd" clip-rule="evenodd" d="M16.283 20.7014C16.4487 20.5024 16.6578 20.3343 16.9016 20.2108L30.7029 13.2201C31.2823 12.9266 31.9772 12.9266 32.5566 13.2201L46.3579 20.2108C46.5459 20.306 46.7132 20.4277 46.8559 20.5697L31.7243 28.8778C31.6248 28.9325 31.533 28.995 31.4494 29.064C31.3658 28.995 31.2741 28.9325 31.1746 28.8778L16.283 20.7014Z" fill="#FEC53D"/>
</svg>
