<svg width="64" height="60" viewBox="0 0 64 60" fill="none" xmlns="http://www.w3.org/2000/svg">
<path opacity="0.3" d="M40.1758 0C52.8782 0.000114305 63.1758 10.2975 63.1758 23V37C63.1758 49.7025 52.8782 59.9999 40.1758 60H23.084C10.3814 60 0.0839844 49.7025 0.0839844 37V23C0.0839844 10.2975 10.3814 0 23.084 0H40.1758Z" fill="#FF9066"/>
<path d="M25.6775 34.4194C26.2764 34.4194 26.8507 34.1815 27.2742 33.7581C27.6977 33.3346 27.9356 32.7603 27.9356 32.1614C27.9356 31.5625 27.6977 30.9882 27.2742 30.5647C26.8507 30.1412 26.2764 29.9033 25.6775 29.9033C25.0786 29.9033 24.5043 30.1412 24.0808 30.5647C23.6573 30.9882 23.4194 31.5625 23.4194 32.1614C23.4194 32.7603 23.6573 33.3346 24.0808 33.7581C24.5043 34.1815 25.0786 34.4194 25.6775 34.4194ZM25.6775 40.742C26.2764 40.742 26.8507 40.5041 27.2742 40.0807C27.6977 39.6572 27.9356 39.0828 27.9356 38.484C27.9356 37.8851 27.6977 37.3107 27.2742 36.8873C26.8507 36.4638 26.2764 36.2259 25.6775 36.2259C25.0786 36.2259 24.5043 36.4638 24.0808 36.8873C23.6573 37.3107 23.4194 37.8851 23.4194 38.484C23.4194 39.0828 23.6573 39.6572 24.0808 40.0807C24.5043 40.5041 25.0786 40.742 25.6775 40.742ZM34.2581 32.1614C34.2581 32.7603 34.0202 33.3346 33.5968 33.7581C33.1733 34.1815 32.599 34.4194 32.0001 34.4194C31.4012 34.4194 30.8269 34.1815 30.4034 33.7581C29.9799 33.3346 29.742 32.7603 29.742 32.1614C29.742 31.5625 29.9799 30.9882 30.4034 30.5647C30.8269 30.1412 31.4012 29.9033 32.0001 29.9033C32.599 29.9033 33.1733 30.1412 33.5968 30.5647C34.0202 30.9882 34.2581 31.5625 34.2581 32.1614ZM32.0001 40.742C32.599 40.742 33.1733 40.5041 33.5968 40.0807C34.0202 39.6572 34.2581 39.0828 34.2581 38.484C34.2581 37.8851 34.0202 37.3107 33.5968 36.8873C33.1733 36.4638 32.599 36.2259 32.0001 36.2259C31.4012 36.2259 30.8269 36.4638 30.4034 36.8873C29.9799 37.3107 29.742 37.8851 29.742 38.484C29.742 39.0828 29.9799 39.6572 30.4034 40.0807C30.8269 40.5041 31.4012 40.742 32.0001 40.742ZM40.5807 32.1614C40.5807 32.7603 40.3428 33.3346 39.9194 33.7581C39.4959 34.1815 38.9215 34.4194 38.3227 34.4194C37.7238 34.4194 37.1494 34.1815 36.726 33.7581C36.3025 33.3346 36.0646 32.7603 36.0646 32.1614C36.0646 31.5625 36.3025 30.9882 36.726 30.5647C37.1494 30.1412 37.7238 29.9033 38.3227 29.9033C38.9215 29.9033 39.4959 30.1412 39.9194 30.5647C40.3428 30.9882 40.5807 31.5625 40.5807 32.1614Z" fill="#FF9871"/>
<path fill-rule="evenodd" clip-rule="evenodd" d="M24.7742 15C25.1335 15 25.4781 15.1427 25.7322 15.3968C25.9863 15.6509 26.129 15.9955 26.129 16.3548V17.7097H37.871V16.3548C37.871 15.9955 38.0137 15.6509 38.2678 15.3968C38.5219 15.1427 38.8665 15 39.2258 15C39.5851 15 39.9297 15.1427 40.1838 15.3968C40.4379 15.6509 40.5806 15.9955 40.5806 16.3548V17.7241C40.8552 17.7314 41.1111 17.7446 41.3484 17.7639C42.0348 17.8181 42.6779 17.9409 43.2867 18.2516C44.2216 18.7279 44.9818 19.488 45.4581 20.423C45.7688 21.0317 45.8916 21.6748 45.9458 22.3613C46 23.0206 46 23.8245 46 24.791V38.6284C46 39.5948 46 40.3987 45.9458 41.0581C45.8916 41.7445 45.7688 42.3876 45.4581 42.9964C44.9822 43.931 44.2228 44.6911 43.2885 45.1677C42.6779 45.4785 42.0348 45.6013 41.3484 45.6555C40.689 45.7097 39.8852 45.7097 38.9205 45.7097H25.0813C24.1148 45.7097 23.311 45.7097 22.6516 45.6555C21.9652 45.6013 21.3221 45.4785 20.7133 45.1677C19.7789 44.6924 19.0189 43.9336 18.5419 43C18.2312 42.3894 18.1084 41.7463 18.0542 41.0599C18 40.4005 18 39.5966 18 38.632V24.791C18 23.8245 18 23.0206 18.0542 22.3613C18.1084 21.6748 18.2312 21.0317 18.5419 20.423C19.0182 19.488 19.7784 18.7279 20.7133 18.2516C21.3221 17.9409 21.9652 17.8181 22.6516 17.7639C22.8889 17.7446 23.1448 17.7314 23.4194 17.7241V16.3548C23.4194 16.1769 23.4544 16.0007 23.5225 15.8364C23.5906 15.672 23.6904 15.5226 23.8162 15.3968C23.942 15.271 24.0913 15.1712 24.2557 15.1031C24.4201 15.035 24.5963 15 24.7742 15ZM43.2903 27.6452H20.7097V38.5742C20.7097 39.6075 20.7097 40.303 20.7548 40.8359C20.7964 41.3561 20.8723 41.6036 20.9554 41.7662C21.1721 42.1925 21.5172 42.5375 21.9435 42.7543C22.1061 42.8374 22.3535 42.9133 22.872 42.9548C23.4067 42.9982 24.1004 43 25.1355 43H38.8645C39.8978 43 40.5933 43 41.1262 42.9548C41.6465 42.9133 41.8939 42.8374 42.0565 42.7543C42.4821 42.5377 42.828 42.1918 43.0446 41.7662C43.1277 41.6036 43.2036 41.3561 43.2452 40.8359C43.2885 40.303 43.2903 39.6075 43.2903 38.5742V27.6452ZM29.2903 21.7742C28.931 21.7742 28.5864 21.9169 28.3323 22.171C28.0782 22.4251 27.9355 22.7697 27.9355 23.129C27.9355 23.4884 28.0782 23.833 28.3323 24.087C28.5864 24.3411 28.931 24.4839 29.2903 24.4839H34.7097C35.069 24.4839 35.4136 24.3411 35.6677 24.087C35.9218 23.833 36.0645 23.4884 36.0645 23.129C36.0645 22.7697 35.9218 22.4251 35.6677 22.171C35.4136 21.9169 35.069 21.7742 34.7097 21.7742H29.2903Z" fill="#FF9871"/>
</svg>
