<svg width="64" height="60" viewBox="0 0 64 60" fill="none" xmlns="http://www.w3.org/2000/svg">
<path opacity="0.21" d="M40.6758 0C53.3782 0.000114305 63.6758 10.2975 63.6758 23V37C63.6758 49.7025 53.3782 59.9999 40.6758 60H23.584C10.8814 60 0.583984 49.7025 0.583984 37V23C0.583984 10.2975 10.8814 0 23.584 0H40.6758Z" fill="#4AD991"/>
<path d="M20.6799 40.8889H45.2155C46.1189 40.8889 46.8512 41.5853 46.8512 42.4444C46.8512 43.3036 46.1189 44 45.2155 44H19.0442C18.1408 44 17.4084 43.3036 17.4084 42.4444V17.5556C17.4084 16.6964 18.1408 16 19.0442 16C19.9475 16 20.6799 16.6964 20.6799 17.5556V40.8889Z" fill="#4AD991"/>
<path opacity="0.5" d="M26.7804 34.175C26.1626 34.8017 25.1274 34.8335 24.4684 34.2459C23.8094 33.6583 23.776 32.6739 24.3938 32.0472L30.5277 25.8249C31.1253 25.2188 32.1182 25.1662 32.7828 25.7056L37.6241 29.6343L43.9318 22.0361C44.4916 21.3618 45.5201 21.2467 46.2292 21.779C46.9382 22.3114 47.0592 23.2895 46.4995 23.9638L39.1388 32.8305C38.5639 33.5231 37.499 33.6227 36.7932 33.0499L31.8467 29.0358L26.7804 34.175Z" fill="#4AD991"/>
</svg>
