<svg width="64" height="60" viewBox="0 0 64 60" fill="none" xmlns="http://www.w3.org/2000/svg">
<path opacity="0.21" d="M40.6758 0C53.3782 0.000114305 63.6758 10.2975 63.6758 23V37C63.6758 49.7025 53.3782 59.9999 40.6758 60H23.584C10.8814 60 0.583984 49.7025 0.583984 37V23C0.583984 10.2975 10.8814 0 23.584 0H40.6758Z" fill="#C896F7"/>
<path opacity="0.587821" d="M40.542 24.667C42.8648 24.6671 44.748 26.4579 44.748 28.667C44.7479 30.8759 42.8648 32.6669 40.542 32.667C38.2191 32.667 36.3361 30.876 36.3359 28.667C36.3359 26.4579 38.219 24.667 40.542 24.667ZM27.9238 18C31.0209 18.0001 33.5311 20.3877 33.5312 23.333C33.5312 26.2784 31.021 28.6669 27.9238 28.667C24.8265 28.667 22.3154 26.2785 22.3154 23.333C22.3156 20.3876 24.8267 18 27.9238 18Z" fill="#7E5AEF"/>
<path d="M27.9 31.3335C34.6126 31.3335 40.1276 34.391 40.5386 40.9331C40.555 41.1937 40.539 42.0004 39.4859 42.0005H16.3248C15.973 41.9999 15.2766 41.2786 15.3062 40.9321C15.8498 34.5688 21.2806 31.3336 27.9 31.3335ZM39.983 34.0024C44.7588 34.0522 48.6583 36.3477 48.9517 41.2007C48.9635 41.3966 48.9511 42.0005 48.191 42.0005H42.7847C42.7847 38.9998 41.7421 36.2305 39.983 34.0024Z" fill="#7E5AEF"/>
</svg>
