<svg width="15" height="14" viewBox="0 0 15 14" fill="none" xmlns="http://www.w3.org/2000/svg">
<path d="M7.9834 0C11.8495 0 14.9834 3.1339 14.9834 7C14.9834 10.8661 11.8495 14 7.9834 14C4.1173 14 0.983398 10.8661 0.983398 7C0.983398 3.1339 4.1173 0 7.9834 0ZM7.9834 1.4C6.49819 1.4 5.0738 1.99 4.0236 3.0402C2.9734 4.09041 2.3834 5.51479 2.3834 7C2.3834 8.48521 2.9734 9.90959 4.0236 10.9598C5.0738 12.01 6.49819 12.6 7.9834 12.6C9.46861 12.6 10.893 12.01 11.9432 10.9598C12.9934 9.90959 13.5834 8.48521 13.5834 7C13.5834 5.51479 12.9934 4.09041 11.9432 3.0402C10.893 1.99 9.46861 1.4 7.9834 1.4ZM7.9834 2.8C8.15485 2.80002 8.32033 2.86297 8.44846 2.9769C8.57658 3.09083 8.65844 3.24782 8.6785 3.4181L8.6834 3.5V6.7102L10.5783 8.6051C10.7038 8.73107 10.7767 8.9001 10.7822 9.07787C10.7876 9.25563 10.7251 9.4288 10.6075 9.56219C10.4899 9.69559 10.3259 9.77921 10.1489 9.79608C9.97182 9.81294 9.79499 9.76179 9.6543 9.653L9.5885 9.5949L7.4885 7.4949C7.3797 7.38601 7.30983 7.2443 7.2897 7.0917L7.2834 7V3.5C7.2834 3.31435 7.35715 3.1363 7.48842 3.00503C7.6197 2.87375 7.79775 2.8 7.9834 2.8Z" fill="#94A3B8"/>
</svg>
